<svg width="306" height="173" viewBox="0 0 306 173" fill="none" xmlns="http://www.w3.org/2000/svg">
<path fill-rule="evenodd" clip-rule="evenodd" d="M185.638 82.5989L187.791 77.6444C190.331 71.8576 191.388 65.5297 190.865 59.2326C190.342 52.9355 188.256 46.8679 184.796 41.5783C181.335 36.2887 176.61 31.9439 171.046 28.9367C165.482 25.9295 159.256 24.3547 152.93 24.3547C146.604 24.3547 140.377 25.9295 134.813 28.9367C129.25 31.9439 124.524 36.2887 121.064 41.5783C117.603 46.8679 115.517 52.9355 114.994 59.2326C114.472 65.5297 115.528 71.8576 118.069 77.6444L95.6579 87.494C91.4881 77.9927 89.7547 67.6033 90.6143 57.2649C91.474 46.9264 94.8995 36.965 100.581 28.2809C106.263 19.5968 114.022 12.464 123.157 7.52704C132.291 2.59013 142.514 0.00482178 152.9 0.00482178C163.286 0.00482178 173.509 2.59013 182.643 7.52704C191.778 12.464 199.537 19.5968 205.219 28.2809C210.9 36.965 214.326 46.9264 215.185 57.2649C216.045 67.6033 214.312 77.9927 210.142 87.494L207.979 92.4485C202.897 104.023 196.651 115.052 189.338 125.366L159.19 167.886C158.267 169.186 157.04 170.241 155.616 170.959C154.191 171.677 152.613 172.035 151.017 172.003C149.422 171.971 147.859 171.549 146.465 170.774C145.071 169.999 143.888 168.895 143.019 167.559L114.438 123.602C108.465 114.419 103.249 104.765 98.8424 94.7374L95.6579 87.494L118.039 77.684L121.223 84.9573C125.093 93.7673 129.675 102.248 134.924 110.314L151.729 136.147L169.408 111.226C175.772 102.256 181.21 92.6644 185.638 82.5989Z" fill="#4831D4"/>
<path fill-rule="evenodd" clip-rule="evenodd" d="M280.15 89.7777C281.173 88.757 281.984 87.5451 282.538 86.2113C283.092 84.8774 283.376 83.4478 283.376 82.004C283.376 80.5602 283.092 79.1305 282.538 77.7967C281.984 76.4628 281.173 75.251 280.15 74.2303L235.397 29.5564C234.118 28.2787 233.4 26.5464 233.4 24.7403C233.4 22.9342 234.118 21.202 235.397 19.9242L241.343 13.999C241.972 13.367 242.721 12.8655 243.545 12.5232C244.37 12.181 245.254 12.0048 246.147 12.0048C247.04 12.0048 247.924 12.181 248.749 12.5232C249.573 12.8655 250.322 13.367 250.952 13.999L295.725 58.6928C298.792 61.7547 301.225 65.3897 302.885 69.3903C304.545 73.3909 305.4 77.6787 305.4 82.009C305.4 86.3392 304.545 90.627 302.885 94.6276C301.225 98.6282 298.792 102.263 295.725 105.325L250.952 150.019C249.677 151.291 247.949 152.005 246.147 152.005C244.345 152.005 242.617 151.291 241.343 150.019L235.397 144.084C234.118 142.806 233.4 141.074 233.4 139.268C233.4 137.462 234.118 135.729 235.397 134.452L280.15 89.7777Z" fill="#4831D4"/>
<path fill-rule="evenodd" clip-rule="evenodd" d="M25.65 74.2319C24.6271 75.2526 23.8156 76.4645 23.2619 77.7984C22.7083 79.1322 22.4233 80.5618 22.4233 82.0057C22.4233 83.4495 22.7083 84.8791 23.2619 86.213C23.8156 87.5468 24.6271 88.7587 25.65 89.7794L70.4029 134.453C71.6816 135.731 72.3999 137.463 72.3999 139.269C72.3999 141.075 71.6816 142.808 70.4029 144.085L64.4572 150.011C63.8275 150.643 63.0789 151.144 62.2543 151.486C61.4298 151.829 60.5456 152.005 59.6526 152.005C58.7597 152.005 57.8755 151.829 57.0509 151.486C56.2264 151.144 55.4777 150.643 54.848 150.011L10.0751 105.317C7.0077 102.255 4.5745 98.6199 2.91442 94.6193C1.25434 90.6187 0.399893 86.3309 0.399894 82.0007C0.399894 77.6704 1.25434 73.3826 2.91442 69.382C4.5745 65.3814 7.0077 61.7464 10.0751 58.6845L54.848 13.9907C56.1225 12.7191 57.8507 12.0048 59.6526 12.0048C61.4546 12.0048 63.1828 12.7191 64.4572 13.9907L70.4029 19.9259C71.6817 21.2037 72.3999 22.9359 72.3999 24.742C72.3999 26.5481 71.6817 28.2803 70.4029 29.5581L25.65 74.2319Z" fill="#4831D4"/>
</svg>
