<svg width="943" height="172" viewBox="0 0 943 172" fill="none" xmlns="http://www.w3.org/2000/svg">
<path d="M132.17 135.515C126.044 135.639 119.96 134.477 114.31 132.105C109.339 129.953 104.956 126.64 101.53 122.445C98.0277 118.063 95.3786 113.063 93.7199 107.705C91.8347 101.663 90.7849 95.3914 90.5999 89.0648C90.4732 86.7248 90.4066 84.6115 90.3999 82.7248C90.3999 80.8448 90.4699 78.7248 90.5999 76.3848C90.7971 70.2292 91.8058 64.1265 93.5999 58.2348C95.238 52.8708 97.8891 47.8706 101.41 43.5048C104.876 39.2592 109.287 35.8827 114.29 33.6448C119.922 31.2048 126.013 30.0076 132.15 30.1348C139.17 30.1348 145.12 31.3382 150 33.7448C154.657 35.9737 158.814 39.1238 162.22 43.0048V4.68482C162.191 3.45726 162.647 2.26774 163.49 1.37482C163.927 0.915229 164.457 0.555014 165.046 0.318627C165.634 0.0822396 166.267 -0.0247845 166.9 0.00482039H184.49C185.107 -0.00521519 185.721 0.111141 186.291 0.346738C186.862 0.582335 187.379 0.932196 187.81 1.37482C188.252 1.8037 188.602 2.31868 188.838 2.88796C189.073 3.45725 189.19 4.06878 189.18 4.68482V128.885C189.18 129.5 189.059 130.11 188.823 130.678C188.587 131.247 188.241 131.763 187.806 132.198C187.37 132.632 186.853 132.977 186.284 133.211C185.715 133.446 185.105 133.566 184.49 133.565H167.08C166.445 133.595 165.811 133.488 165.221 133.251C164.631 133.015 164.099 132.655 163.66 132.195C162.817 131.302 162.361 130.112 162.39 128.885V121.665C159.005 125.828 155.784 129.235 151 131.665C145.993 134.231 139.717 135.515 132.17 135.515ZM139.39 114.635C144.85 114.635 149.207 113.398 152.46 110.925C155.686 108.49 158.183 105.218 159.68 101.465C161.227 97.7122 162.088 93.7119 162.22 89.6548C162.35 87.3148 162.42 84.8048 162.42 82.1448C162.42 79.4848 162.35 76.9648 162.22 74.6248C162.093 70.7367 161.163 66.9168 159.49 63.4048C157.822 59.8555 155.266 56.7968 152.07 54.5248C148.823 52.1782 144.597 51.0048 139.39 51.0048C133.917 51.0048 129.583 52.2082 126.39 54.6148C123.202 57.0203 120.792 60.3101 119.46 64.0748C117.982 68.2352 117.136 72.5936 116.95 77.0048C116.81 80.9182 116.81 84.8215 116.95 88.7148C117.145 93.1105 117.997 97.4521 119.48 101.595C120.809 105.364 123.219 108.658 126.41 111.065C129.603 113.451 133.93 114.641 139.39 114.635Z" fill="white"/>
<path d="M245.66 135.515C231.22 135.515 219.77 131.351 211.31 123.025C202.85 114.698 198.297 102.858 197.65 87.5048C197.52 86.2048 197.45 84.5048 197.45 82.5048C197.433 80.9091 197.499 79.3135 197.65 77.7248C198.17 67.8315 200.413 59.3415 204.38 52.2548C208.19 45.3224 213.914 39.6327 220.87 35.8648C227.903 32.0248 236.167 30.1048 245.66 30.1048C256.2 30.1048 265.047 32.2848 272.2 36.6448C279.29 40.9389 284.932 47.2567 288.4 54.7848C292.04 62.5382 293.86 71.4848 293.86 81.6248V85.7248C293.871 86.341 293.755 86.9529 293.519 87.5224C293.284 88.0918 292.933 88.6067 292.49 89.0348C292.03 89.492 291.482 89.8496 290.878 90.0853C290.274 90.321 289.628 90.4298 288.98 90.4048H224.19V92.0048C224.273 96.3289 225.165 100.599 226.82 104.595C228.336 108.289 230.837 111.495 234.05 113.865C237.369 116.248 241.376 117.481 245.46 117.375C251.062 117.591 256.531 115.631 260.72 111.905C261.94 110.844 263.052 109.665 264.04 108.385C264.767 107.247 265.733 106.282 266.87 105.555C267.901 105.183 268.995 105.019 270.09 105.075H286.87C288.055 105.031 289.21 105.451 290.09 106.245C290.5 106.604 290.814 107.061 291.002 107.573C291.191 108.084 291.249 108.635 291.17 109.175C291.04 111.255 289.96 113.785 287.95 116.785C285.552 120.166 282.616 123.132 279.26 125.565C274.964 128.695 270.184 131.101 265.11 132.685C258.822 134.671 252.253 135.626 245.66 135.515ZM224.19 74.0048H267.32V73.4148C267.413 68.8299 266.548 64.2761 264.78 60.0448C263.247 56.3824 260.67 53.2523 257.37 51.0448C253.828 48.937 249.782 47.8244 245.66 47.8244C241.538 47.8244 237.492 48.937 233.95 51.0448C230.655 53.2342 228.102 56.3727 226.63 60.0448C224.925 64.2919 224.095 68.8394 224.19 73.4148V74.0048Z" fill="white"/>
<path d="M334.89 133.565C334.066 133.635 333.237 133.542 332.45 133.292C331.662 133.041 330.932 132.638 330.3 132.105C329.307 131.105 328.483 129.95 327.86 128.685L291.37 38.1348C291.126 37.5795 290.993 36.9814 290.98 36.3748C290.988 35.2395 291.442 34.1529 292.245 33.35C293.048 32.5472 294.135 32.0927 295.27 32.0848H311.08C311.722 32.035 312.367 32.1225 312.972 32.3415C313.577 32.5605 314.129 32.9059 314.59 33.3548C315.274 34.0505 315.806 34.8816 316.15 35.7948L342.15 104.295L368.15 35.7948C368.494 34.8816 369.026 34.0505 369.71 33.3548C370.173 32.9051 370.726 32.5593 371.333 32.3403C371.94 32.1213 372.587 32.0342 373.23 32.0848H389.23C389.763 32.0923 390.29 32.2088 390.776 32.4272C391.263 32.6456 391.7 32.9613 392.06 33.3548C392.463 33.7433 392.783 34.2094 393.002 34.725C393.22 35.2406 393.332 35.795 393.33 36.3548C393.321 36.9466 393.254 37.536 393.13 38.1148L356.44 128.665C355.921 129.963 355.122 131.131 354.1 132.085C352.783 133.151 351.109 133.673 349.42 133.545L334.89 133.565Z" fill="white"/>
<path d="M437.02 135.515C430.251 135.661 423.502 134.74 417.02 132.785C412.144 131.314 407.555 129.021 403.45 126.005C400.386 123.75 397.743 120.975 395.64 117.805C393.95 115.075 393.04 112.805 392.91 110.975C392.817 110.345 392.884 109.703 393.106 109.106C393.329 108.51 393.698 107.98 394.18 107.565C395.058 106.756 396.206 106.303 397.4 106.295H412.82C413.28 106.29 413.739 106.354 414.18 106.485C414.764 106.75 415.288 107.131 415.72 107.605C417.41 109.045 419.2 110.535 421.09 112.095C423.128 113.747 425.395 115.095 427.82 116.095C431.477 117.387 435.356 117.932 439.228 117.699C443.1 117.465 446.885 116.457 450.36 114.735C451.649 114.002 452.764 112.997 453.627 111.792C454.49 110.586 455.081 109.207 455.36 107.751C455.638 106.294 455.597 104.795 455.24 103.356C454.883 101.916 454.218 100.572 453.29 99.4148C451.79 97.7281 449.027 96.1981 445 94.8248C439.36 93.0401 433.625 91.5744 427.82 90.4348C421.531 89.093 415.446 86.9312 409.72 84.0048C405.323 81.7873 401.613 78.413 398.99 74.2448C396.505 69.9113 395.286 64.9679 395.47 59.976C395.653 54.9841 397.233 50.1438 400.03 46.0048C403.09 41.4181 407.653 37.6248 413.72 34.6248C419.787 31.6248 427.3 30.1281 436.26 30.1348C442.475 30.0166 448.669 30.9047 454.6 32.7648C459.254 34.24 463.642 36.4477 467.6 39.3048C470.639 41.4989 473.306 44.1661 475.5 47.2048C477.32 49.8715 478.297 52.1815 478.43 54.1348C478.524 54.7569 478.466 55.3924 478.263 55.9877C478.059 56.583 477.715 57.1205 477.26 57.5548C476.425 58.3679 475.306 58.8235 474.14 58.8248H459.65C459.043 58.8359 458.442 58.6986 457.9 58.4248C457.347 58.1455 456.825 57.8105 456.34 57.4248C454.9 56.0915 453.337 54.6915 451.65 53.2248C449.815 51.644 447.743 50.3616 445.51 49.4248C442.489 48.2778 439.269 47.7474 436.04 47.8648C431.087 47.8648 427.313 48.9381 424.72 51.0848C423.487 52.0406 422.493 53.2698 421.816 54.6754C421.139 56.0811 420.798 57.6248 420.82 59.1848C420.77 61.2849 421.44 63.339 422.72 65.0048C423.96 66.6381 426.467 68.1681 430.24 69.5948C435.829 71.4887 441.552 72.9628 447.36 74.0048C456.073 75.5648 463 77.8748 468.14 80.9348C473.28 83.9948 476.923 87.5181 479.07 91.5048C481.239 95.5558 482.347 100.09 482.29 104.685C482.342 110.375 480.526 115.926 477.12 120.485C473.673 125.151 468.6 128.818 461.9 131.485C455.2 134.151 446.907 135.495 437.02 135.515Z" fill="white"/>
<path d="M496.11 133.565C495.495 133.567 494.885 133.448 494.316 133.214C493.747 132.98 493.23 132.635 492.795 132.2C492.36 131.765 492.015 131.248 491.781 130.679C491.547 130.11 491.427 129.5 491.43 128.885V36.7648C491.427 36.1495 491.547 35.5397 491.781 34.9707C492.015 34.4017 492.36 33.8848 492.795 33.4497C493.23 33.0145 493.747 32.6699 494.316 32.4357C494.885 32.2014 495.495 32.0822 496.11 32.0848H511.33C511.945 32.0835 512.555 32.2036 513.124 32.4382C513.693 32.6728 514.21 33.0173 514.646 33.452C515.081 33.8867 515.427 34.4031 515.663 34.9715C515.899 35.54 516.02 36.1494 516.02 36.7648V43.4048C518.982 39.5639 522.733 36.4028 527.02 34.1348C532.109 31.4794 537.77 30.1064 543.51 30.1348C558.343 29.8748 568.677 35.6648 574.51 47.5048C577.608 42.1966 582.105 37.8415 587.51 34.9148C593.261 31.7034 599.753 30.0553 606.34 30.1348C612.79 30.0539 619.149 31.6677 624.78 34.8148C630.484 38.1101 635.056 43.0578 637.89 49.0048C641.11 55.2915 642.72 63.2481 642.72 72.8748V128.875C642.723 129.49 642.603 130.1 642.369 130.669C642.135 131.238 641.79 131.755 641.355 132.19C640.92 132.625 640.403 132.97 639.834 133.204C639.265 133.438 638.655 133.557 638.04 133.555H622.04C620.799 133.555 619.608 133.062 618.731 132.184C617.853 131.306 617.36 130.116 617.36 128.875V74.4348C617.36 68.5748 616.513 63.9081 614.82 60.4348C613.423 57.3042 611.019 54.731 607.99 53.1248C604.996 51.6687 601.699 50.9422 598.37 51.0048C595.381 51.0365 592.441 51.7731 589.79 53.1548C586.741 54.7875 584.289 57.3475 582.79 60.4648C580.97 63.9181 580.06 68.5848 580.06 74.4648V128.915C580.06 129.53 579.939 130.14 579.703 130.708C579.467 131.277 579.121 131.793 578.686 132.228C578.25 132.662 577.733 133.007 577.164 133.241C576.595 133.476 575.985 133.596 575.37 133.595H559.37C558.755 133.597 558.145 133.478 557.576 133.244C557.007 133.01 556.49 132.665 556.055 132.23C555.62 131.795 555.275 131.278 555.041 130.709C554.807 130.14 554.687 129.53 554.69 128.915V74.4348C554.69 68.5748 553.777 63.9081 551.95 60.4348C550.449 57.3187 547.998 54.7592 544.95 53.1248C542.084 51.6982 538.921 50.9716 535.72 51.0048C532.651 51.0249 529.634 51.7938 526.93 53.2448C523.909 54.92 521.469 57.4725 519.93 60.5648C518.11 63.9548 517.2 68.5648 517.2 74.4248V128.875C517.2 129.49 517.079 130.1 516.843 130.668C516.607 131.237 516.261 131.753 515.826 132.188C515.39 132.622 514.873 132.967 514.304 133.201C513.735 133.436 513.125 133.556 512.51 133.555L496.11 133.565Z" fill="white"/>
<path d="M687.91 135.515C681.57 135.611 675.294 134.242 669.57 131.515C664.396 129.1 659.922 125.407 656.57 120.785C652.566 115.037 650.987 107.943 652.174 101.039C653.36 94.1356 657.217 87.9765 662.91 83.8948C670.33 78.5082 680.023 74.8982 691.99 73.0648L718.72 69.1648V65.0648C718.72 59.6048 717.353 55.3782 714.62 52.3848C711.887 49.3915 707.22 47.8948 700.62 47.8948C695.953 47.8948 692.147 48.8382 689.2 50.7248C686.333 52.5358 684.06 55.1465 682.66 58.2348C682.213 59.0263 681.559 59.6811 680.768 60.1286C679.977 60.5761 679.079 60.7995 678.17 60.7748H662.72C662.131 60.8209 661.539 60.7403 660.983 60.5385C660.428 60.3367 659.922 60.0184 659.5 59.6048C658.749 58.7403 658.362 57.6185 658.42 56.4748C658.755 53.7806 659.654 51.1875 661.06 48.8648C662.972 45.5378 665.484 42.5946 668.47 40.1848C672.355 37.0715 676.755 34.6618 681.47 33.0648C686.803 31.1048 693.243 30.1282 700.79 30.1348C708.99 30.1348 715.92 31.1348 721.58 33.1348C726.643 34.7996 731.274 37.5659 735.14 41.2348C738.495 44.5802 741.032 48.6565 742.55 53.1448C744.135 57.793 744.929 62.674 744.9 67.5848V128.865C744.9 129.48 744.779 130.09 744.543 130.658C744.307 131.227 743.961 131.743 743.526 132.178C743.09 132.612 742.573 132.957 742.004 133.191C741.435 133.426 740.825 133.546 740.21 133.545H724.4C723.767 133.574 723.134 133.467 722.546 133.231C721.958 132.995 721.427 132.634 720.99 132.175C720.147 131.282 719.691 130.092 719.72 128.865V121.245C717.784 123.838 715.483 126.139 712.89 128.075C709.741 130.445 706.21 132.261 702.45 133.445C697.746 134.909 692.836 135.608 687.91 135.515ZM694.55 117.005C698.865 117.044 703.122 116.014 706.94 114.005C710.726 111.983 713.793 108.84 715.72 105.005C717.867 100.905 718.94 95.7315 718.94 89.4848V85.3648L699.42 88.4848C691.747 89.6582 686.023 91.5448 682.25 94.1448C678.477 96.7448 676.59 99.9315 676.59 103.705C676.526 106.389 677.468 109 679.23 111.025C681.044 113.082 683.364 114.63 685.96 115.515C688.716 116.502 691.622 117.006 694.55 117.005Z" fill="white"/>
<path d="M758.72 171.645C757.479 171.645 756.288 171.152 755.411 170.274C754.533 169.396 754.04 168.206 754.04 166.965V36.7648C754.04 35.5236 754.533 34.3332 755.411 33.4556C756.288 32.5779 757.479 32.0848 758.72 32.0848H774.14C774.775 32.0564 775.408 32.1639 775.998 32.4002C776.588 32.6365 777.12 32.996 777.56 33.4548C778.398 34.3506 778.854 35.5382 778.83 36.7648V44.5748C782.12 40.2699 786.316 36.74 791.12 34.2348C796.187 31.4948 802.496 30.1282 810.05 30.1348C816.215 29.9825 822.345 31.1131 828.05 33.4548C832.967 35.5533 837.311 38.7968 840.72 42.9148C844.213 47.2263 846.86 52.1597 848.52 57.4548C850.401 63.4659 851.441 69.7085 851.61 76.0048C851.737 78.2182 851.8 80.4948 851.8 82.8348C851.8 85.1748 851.737 87.5082 851.61 89.8348C851.554 95.9687 850.58 102.06 848.72 107.905C847.036 113.18 844.354 118.082 840.82 122.345C837.329 126.477 832.959 129.777 828.03 132.005C822.357 134.47 816.214 135.668 810.03 135.515C803.003 135.515 797.003 134.248 792.03 131.715C787.278 129.338 783.138 125.9 779.93 121.665V167.005C779.953 168.231 779.497 169.418 778.66 170.315C778.22 170.774 777.688 171.133 777.098 171.369C776.508 171.606 775.875 171.713 775.24 171.685L758.72 171.645ZM802.83 114.645C808.423 114.645 812.78 113.441 815.9 111.035C819.044 108.605 821.416 105.315 822.73 101.565C824.211 97.4212 825.067 93.0803 825.27 88.6848C825.403 84.7848 825.403 80.8815 825.27 76.9748C825.062 72.5756 824.203 68.2316 822.72 64.0848C821.403 60.3386 819.032 57.0532 815.89 54.6248C812.77 52.2115 808.413 51.0048 802.82 51.0048C797.486 51.0048 793.153 52.2415 789.82 54.7148C786.557 57.1113 784.051 60.3949 782.6 64.1748C781.122 67.9592 780.242 71.9501 779.99 76.0048C779.85 78.3448 779.79 80.8148 779.79 83.4148C779.79 86.0148 779.85 88.5648 779.99 91.0348C780.112 94.9236 781.042 98.7445 782.72 102.255C784.387 105.802 786.939 108.86 790.13 111.135C793.383 113.468 797.613 114.635 802.82 114.635L802.83 114.645Z" fill="white"/>
<path fill-rule="evenodd" clip-rule="evenodd" d="M916.55 89.7777C917.573 88.757 918.384 87.5451 918.938 86.2113C919.491 84.8774 919.776 83.4478 919.776 82.004C919.776 80.5602 919.491 79.1305 918.938 77.7967C918.384 76.4628 917.573 75.251 916.55 74.2303L871.797 29.5564C870.518 28.2787 869.8 26.5464 869.8 24.7403C869.8 22.9342 870.518 21.202 871.797 19.9242L877.742 13.999C878.372 13.367 879.121 12.8655 879.945 12.5232C880.77 12.181 881.654 12.0048 882.547 12.0048C883.44 12.0048 884.324 12.181 885.149 12.5232C885.973 12.8655 886.722 13.367 887.352 13.999L932.125 58.6928C935.192 61.7547 937.625 65.3897 939.285 69.3903C940.945 73.3909 941.8 77.6787 941.8 82.009C941.8 86.3392 940.945 90.627 939.285 94.6276C937.625 98.6282 935.192 102.263 932.125 105.325L887.352 150.019C886.077 151.291 884.349 152.005 882.547 152.005C880.745 152.005 879.017 151.291 877.742 150.019L871.797 144.084C870.518 142.806 869.8 141.074 869.8 139.268C869.8 137.462 870.518 135.729 871.797 134.452L916.55 89.7777Z" fill="white"/>
<path fill-rule="evenodd" clip-rule="evenodd" d="M25.65 74.2319C24.6271 75.2526 23.8156 76.4645 23.2619 77.7984C22.7083 79.1322 22.4233 80.5618 22.4233 82.0057C22.4233 83.4495 22.7083 84.8791 23.2619 86.213C23.8156 87.5468 24.6271 88.7587 25.65 89.7794L70.4029 134.453C71.6816 135.731 72.3999 137.463 72.3999 139.269C72.3999 141.075 71.6816 142.808 70.4029 144.085L64.4572 150.011C63.8275 150.643 63.0789 151.144 62.2543 151.486C61.4298 151.829 60.5456 152.005 59.6526 152.005C58.7597 152.005 57.8755 151.829 57.0509 151.486C56.2264 151.144 55.4777 150.643 54.848 150.011L10.0751 105.317C7.0077 102.255 4.5745 98.6199 2.91442 94.6193C1.25434 90.6187 0.399893 86.3309 0.399894 82.0007C0.399894 77.6704 1.25434 73.3826 2.91442 69.382C4.5745 65.3814 7.0077 61.7464 10.0751 58.6845L54.848 13.9907C56.1225 12.7191 57.8507 12.0048 59.6526 12.0048C61.4546 12.0048 63.1828 12.7191 64.4572 13.9907L70.4029 19.9259C71.6817 21.2037 72.3999 22.9359 72.3999 24.742C72.3999 26.5481 71.6817 28.2803 70.4029 29.5581L25.65 74.2319Z" fill="white"/>
</svg>
