<svg width="1107" height="173" viewBox="0 0 1107 173" fill="none" xmlns="http://www.w3.org/2000/svg">
<path d="M386.77 135.524C380.644 135.648 374.56 134.487 368.91 132.114C363.939 129.962 359.557 126.65 356.13 122.454C352.628 118.073 349.979 113.073 348.32 107.714C346.435 101.673 345.385 95.401 345.2 89.0745C345.073 86.7345 345.007 84.6211 345 82.7345C345 80.8545 345.07 78.7345 345.2 76.3945C345.397 70.2388 346.406 64.1361 348.2 58.2445C349.838 52.8805 352.489 47.8802 356.01 43.5145C359.476 39.2688 363.887 35.8923 368.89 33.6545C374.522 31.2145 380.614 30.0173 386.75 30.1445C393.77 30.1445 399.72 31.3478 404.6 33.7545C409.257 35.9833 413.415 39.1335 416.82 43.0145V4.69446C416.791 3.4669 417.247 2.27738 418.09 1.38446C418.527 0.924873 419.057 0.564657 419.646 0.32827C420.234 0.0918832 420.867 -0.015141 421.5 0.0144639H439.09C439.708 0.00442836 440.321 0.120784 440.892 0.356381C441.463 0.591978 441.979 0.941839 442.41 1.38446C442.852 1.81335 443.202 2.32832 443.438 2.89761C443.673 3.46689 443.79 4.07842 443.78 4.69446V128.894C443.78 129.51 443.659 130.119 443.423 130.688C443.187 131.256 442.841 131.773 442.406 132.207C441.97 132.642 441.453 132.986 440.884 133.221C440.315 133.456 439.705 133.576 439.09 133.574H421.68C421.045 133.604 420.411 133.497 419.821 133.261C419.231 133.025 418.699 132.664 418.26 132.204C417.417 131.312 416.961 130.122 416.99 128.894V121.674C413.605 125.838 410.384 129.244 405.6 131.674C400.593 134.241 394.317 135.524 386.77 135.524ZM393.99 114.644C399.45 114.644 403.807 113.408 407.06 110.934C410.286 108.5 412.783 105.228 414.28 101.474C415.828 97.7218 416.688 93.7215 416.82 89.6645C416.95 87.3245 417.02 84.8145 417.02 82.1545C417.02 79.4945 416.95 76.9745 416.82 74.6345C416.693 70.7463 415.763 66.9264 414.09 63.4145C412.422 59.8651 409.866 56.8064 406.67 54.5345C403.423 52.1878 399.197 51.0145 393.99 51.0145C388.517 51.0145 384.183 52.2178 380.99 54.6245C377.802 57.0299 375.392 60.3197 374.06 64.0845C372.582 68.2448 371.736 72.6032 371.55 77.0145C371.41 80.9278 371.41 84.8311 371.55 88.7245C371.745 93.1201 372.597 97.4618 374.08 101.604C375.409 105.374 377.819 108.668 381.01 111.074C384.203 113.461 388.53 114.651 393.99 114.644Z" fill="#413F71"/>
<path d="M500.26 135.524C485.82 135.524 474.37 131.361 465.91 123.035C457.45 114.708 452.897 102.868 452.25 87.5145C452.12 86.2145 452.05 84.5145 452.05 82.5145C452.033 80.9188 452.099 79.3232 452.25 77.7345C452.77 67.8412 455.013 59.3512 458.98 52.2645C462.79 45.3321 468.515 39.6424 475.47 35.8745C482.503 32.0345 490.767 30.1145 500.26 30.1145C510.8 30.1145 519.647 32.2945 526.8 36.6545C533.89 40.9486 539.532 47.2664 543 54.7945C546.64 62.5478 548.46 71.4945 548.46 81.6345V85.7345C548.471 86.3507 548.355 86.9626 548.119 87.5321C547.884 88.1015 547.533 88.6163 547.09 89.0445C546.63 89.5017 546.082 89.8592 545.478 90.0949C544.874 90.3306 544.228 90.4394 543.58 90.4145H478.79V92.0145C478.873 96.3386 479.765 100.609 481.42 104.604C482.936 108.298 485.437 111.505 488.65 113.875C491.969 116.258 495.976 117.49 500.06 117.385C505.662 117.601 511.131 115.641 515.32 111.915C516.54 110.854 517.652 109.675 518.64 108.395C519.367 107.257 520.333 106.292 521.47 105.565C522.501 105.192 523.595 105.029 524.69 105.085H541.47C542.655 105.041 543.81 105.461 544.69 106.255C545.1 106.614 545.414 107.071 545.602 107.582C545.791 108.094 545.849 108.645 545.77 109.185C545.64 111.265 544.56 113.795 542.55 116.795C540.152 120.176 537.216 123.141 533.86 125.575C529.564 128.705 524.784 131.11 519.71 132.694C513.422 134.68 506.854 135.636 500.26 135.524ZM478.79 74.0145H521.92V73.4245C522.013 68.8396 521.148 64.2858 519.38 60.0545C517.847 56.3921 515.27 53.262 511.97 51.0545C508.428 48.9467 504.382 47.8341 500.26 47.8341C496.138 47.8341 492.092 48.9467 488.55 51.0545C485.255 53.2438 482.702 56.3823 481.23 60.0545C479.525 64.3015 478.695 68.849 478.79 73.4245V74.0145Z" fill="#413F71"/>
<path d="M589.49 133.574C588.667 133.645 587.837 133.552 587.05 133.301C586.262 133.051 585.532 132.647 584.9 132.114C583.907 131.114 583.083 129.959 582.46 128.694L545.97 38.1444C545.726 37.5891 545.593 36.991 545.58 36.3844C545.588 35.2491 546.042 34.1625 546.845 33.3596C547.648 32.5568 548.735 32.1023 549.87 32.0944H565.68C566.322 32.0446 566.967 32.1321 567.572 32.3511C568.177 32.5701 568.729 32.9155 569.19 33.3644C569.874 34.0601 570.406 34.8912 570.75 35.8044L596.75 104.304L622.75 35.8044C623.094 34.8912 623.626 34.0601 624.31 33.3644C624.773 32.9148 625.326 32.5689 625.933 32.3499C626.54 32.1309 627.187 32.0438 627.83 32.0944H643.83C644.363 32.1019 644.89 32.2184 645.376 32.4368C645.863 32.6552 646.3 32.9709 646.66 33.3644C647.063 33.753 647.383 34.219 647.602 34.7346C647.82 35.2502 647.932 35.8046 647.93 36.3644C647.921 36.9562 647.854 37.5456 647.73 38.1244L611.04 128.674C610.521 129.973 609.722 131.141 608.7 132.094C607.383 133.16 605.709 133.683 604.02 133.554L589.49 133.574Z" fill="#413F71"/>
<path d="M691.62 135.524C684.851 135.671 678.102 134.75 671.62 132.794C666.744 131.323 662.155 129.03 658.05 126.014C654.986 123.76 652.343 120.984 650.24 117.814C648.55 115.084 647.64 112.814 647.51 110.984C647.417 110.355 647.484 109.712 647.706 109.116C647.929 108.52 648.298 107.989 648.78 107.574C649.658 106.765 650.806 106.313 652 106.304H667.42C667.88 106.299 668.339 106.363 668.78 106.494C669.364 106.76 669.888 107.141 670.32 107.614C672.01 109.054 673.8 110.544 675.69 112.104C677.728 113.757 679.995 115.105 682.42 116.104C686.077 117.397 689.956 117.942 693.828 117.708C697.7 117.475 701.485 116.467 704.96 114.744C706.249 114.011 707.364 113.007 708.227 111.801C709.09 110.596 709.681 109.217 709.96 107.76C710.238 106.304 710.197 104.804 709.84 103.365C709.483 101.926 708.818 100.582 707.89 99.4245C706.39 97.7378 703.627 96.2078 699.6 94.8344C693.96 93.0497 688.225 91.5841 682.42 90.4445C676.131 89.1027 670.046 86.9408 664.32 84.0145C659.923 81.7969 656.213 78.4226 653.59 74.2544C651.105 69.921 649.886 64.9776 650.07 59.9857C650.253 54.9938 651.833 50.1534 654.63 46.0145C657.69 41.4278 662.253 37.6344 668.32 34.6344C674.387 31.6344 681.9 30.1378 690.86 30.1445C697.075 30.0263 703.269 30.9144 709.2 32.7744C713.854 34.2496 718.242 36.4573 722.2 39.3145C725.239 41.5086 727.906 44.1758 730.1 47.2145C731.92 49.8811 732.897 52.1911 733.03 54.1445C733.124 54.7666 733.067 55.4021 732.863 55.9974C732.659 56.5926 732.315 57.1301 731.86 57.5645C731.025 58.3775 729.906 58.8331 728.74 58.8345H714.25C713.643 58.8456 713.042 58.7083 712.5 58.4345C711.947 58.1552 711.425 57.8201 710.94 57.4345C709.5 56.1011 707.937 54.7011 706.25 53.2345C704.415 51.6536 702.343 50.3713 700.11 49.4345C697.089 48.2874 693.869 47.757 690.64 47.8745C685.687 47.8745 681.913 48.9478 679.32 51.0945C678.087 52.0502 677.093 53.2794 676.416 54.6851C675.739 56.0908 675.398 57.6345 675.42 59.1945C675.37 61.2946 676.04 63.3486 677.32 65.0145C678.56 66.6478 681.067 68.1778 684.84 69.6044C690.429 71.4983 696.152 72.9724 701.96 74.0145C710.673 75.5745 717.6 77.8844 722.74 80.9445C727.88 84.0045 731.523 87.5278 733.67 91.5145C735.839 95.5654 736.947 100.1 736.89 104.694C736.942 110.385 735.126 115.936 731.72 120.494C728.273 125.161 723.2 128.828 716.5 131.494C709.8 134.161 701.507 135.504 691.62 135.524Z" fill="#413F71"/>
<path d="M750.71 133.574C750.095 133.577 749.485 133.458 748.916 133.224C748.347 132.989 747.83 132.645 747.395 132.21C746.96 131.775 746.615 131.258 746.381 130.689C746.147 130.12 746.027 129.51 746.03 128.894V36.7745C746.027 36.1592 746.147 35.5494 746.381 34.9804C746.615 34.4114 746.96 33.8944 747.395 33.4593C747.83 33.0242 748.347 32.6796 748.916 32.4453C749.485 32.2111 750.095 32.0918 750.71 32.0945H765.93C766.545 32.0932 767.155 32.2133 767.724 32.4479C768.293 32.6825 768.81 33.027 769.246 33.4617C769.681 33.8964 770.027 34.4128 770.263 34.9812C770.499 35.5497 770.62 36.1591 770.62 36.7745V43.4145C773.582 39.5736 777.333 36.4125 781.62 34.1445C786.709 31.4891 792.37 30.116 798.11 30.1445C812.943 29.8845 823.277 35.6745 829.11 47.5145C832.208 42.2063 836.705 37.8511 842.11 34.9245C847.861 31.7131 854.353 30.065 860.94 30.1445C867.39 30.0636 873.749 31.6774 879.38 34.8245C885.085 38.1198 889.656 43.0675 892.49 49.0145C895.71 55.3012 897.32 63.2578 897.32 72.8845V128.884C897.323 129.5 897.203 130.11 896.969 130.679C896.735 131.248 896.39 131.765 895.955 132.2C895.52 132.635 895.003 132.979 894.434 133.214C893.865 133.448 893.255 133.567 892.64 133.564H876.64C875.399 133.564 874.208 133.071 873.331 132.194C872.453 131.316 871.96 130.126 871.96 128.884V74.4445C871.96 68.5845 871.113 63.9178 869.42 60.4445C868.023 57.3139 865.619 54.7407 862.59 53.1345C859.596 51.6783 856.299 50.9519 852.97 51.0145C849.981 51.0462 847.041 51.7828 844.39 53.1645C841.341 54.7972 838.889 57.3572 837.39 60.4745C835.57 63.9278 834.66 68.5945 834.66 74.4745V128.924C834.66 129.54 834.539 130.149 834.303 130.718C834.067 131.286 833.721 131.803 833.286 132.237C832.85 132.672 832.333 133.017 831.764 133.251C831.195 133.486 830.585 133.606 829.97 133.604H813.97C813.355 133.607 812.745 133.488 812.176 133.254C811.607 133.019 811.09 132.675 810.655 132.24C810.22 131.805 809.875 131.288 809.641 130.719C809.407 130.15 809.287 129.54 809.29 128.924V74.4445C809.29 68.5845 808.377 63.9178 806.55 60.4445C805.049 57.3284 802.598 54.7689 799.55 53.1345C796.684 51.7078 793.521 50.9813 790.32 51.0145C787.251 51.0345 784.234 51.8035 781.53 53.2545C778.509 54.9296 776.069 57.4821 774.53 60.5745C772.71 63.9645 771.8 68.5745 771.8 74.4345V128.884C771.8 129.5 771.679 130.109 771.443 130.678C771.207 131.246 770.861 131.763 770.426 132.197C769.99 132.632 769.473 132.977 768.904 133.211C768.335 133.446 767.725 133.566 767.11 133.564L750.71 133.574Z" fill="#413F71"/>
<path d="M942.51 135.524C936.17 135.621 929.894 134.252 924.17 131.524C918.996 129.11 914.522 125.417 911.17 120.794C907.166 115.046 905.587 107.953 906.774 101.049C907.96 94.1452 911.817 87.9861 917.51 83.9044C924.93 78.5178 934.623 74.9078 946.59 73.0744L973.32 69.1744V65.0744C973.32 59.6144 971.953 55.3878 969.22 52.3944C966.487 49.4011 961.82 47.9044 955.22 47.9044C950.553 47.9044 946.747 48.8478 943.8 50.7344C940.933 52.5454 938.66 55.1561 937.26 58.2444C936.813 59.0359 936.159 59.6907 935.368 60.1382C934.577 60.5857 933.679 60.8092 932.77 60.7844H917.32C916.731 60.8305 916.139 60.75 915.583 60.5481C915.028 60.3463 914.522 60.028 914.1 59.6144C913.349 58.7499 912.962 57.6282 913.02 56.4844C913.355 53.7903 914.254 51.1971 915.66 48.8744C917.572 45.5475 920.084 42.6043 923.07 40.1944C926.955 37.0811 931.355 34.6714 936.07 33.0744C941.403 31.1144 947.843 30.1378 955.39 30.1444C963.59 30.1444 970.52 31.1444 976.18 33.1444C981.243 34.8092 985.874 37.5755 989.74 41.2444C993.096 44.5899 995.632 48.6661 997.15 53.1544C998.735 57.8026 999.529 62.6836 999.5 67.5944V128.874C999.5 129.49 999.379 130.099 999.143 130.668C998.907 131.236 998.561 131.753 998.126 132.187C997.69 132.622 997.173 132.966 996.604 133.201C996.035 133.436 995.426 133.556 994.81 133.554H979C978.367 133.584 977.734 133.477 977.146 133.241C976.558 133.004 976.027 132.644 975.59 132.184C974.747 131.292 974.291 130.102 974.32 128.874V121.254C972.384 123.848 970.083 126.148 967.49 128.084C964.341 130.455 960.81 132.271 957.05 133.454C952.346 134.919 947.436 135.618 942.51 135.524ZM949.15 117.014C953.465 117.054 957.722 116.023 961.54 114.014C965.326 111.993 968.393 108.849 970.32 105.014C972.467 100.914 973.54 95.7411 973.54 89.4944V85.3744L954.02 88.4944C946.347 89.6678 940.623 91.5544 936.85 94.1544C933.077 96.7544 931.19 99.9411 931.19 103.714C931.126 106.398 932.068 109.009 933.83 111.034C935.644 113.092 937.964 114.64 940.56 115.524C943.316 116.512 946.222 117.016 949.15 117.014Z" fill="#413F71"/>
<path d="M1013.32 171.654C1012.08 171.654 1010.89 171.161 1010.01 170.284C1009.13 169.406 1008.64 168.216 1008.64 166.974V36.7744C1008.64 35.5332 1009.13 34.3428 1010.01 33.4652C1010.89 32.5875 1012.08 32.0944 1013.32 32.0944H1028.74C1029.37 32.066 1030.01 32.1735 1030.6 32.4098C1031.19 32.6461 1031.72 33.0056 1032.16 33.4644C1033 34.3603 1033.45 35.5478 1033.43 36.7744V44.5844C1036.72 40.2795 1040.92 36.7496 1045.72 34.2444C1050.79 31.5044 1057.1 30.1378 1064.65 30.1444C1070.82 29.9922 1076.94 31.1227 1082.65 33.4644C1087.57 35.563 1091.91 38.8064 1095.32 42.9244C1098.81 47.2359 1101.46 52.1693 1103.12 57.4644C1105 63.4755 1106.04 69.7181 1106.21 76.0144C1106.34 78.2278 1106.4 80.5044 1106.4 82.8444C1106.4 85.1844 1106.34 87.5178 1106.21 89.8444C1106.15 95.9783 1105.18 102.069 1103.32 107.914C1101.64 113.189 1098.95 118.092 1095.42 122.354C1091.93 126.487 1087.56 129.787 1082.63 132.014C1076.96 134.48 1070.81 135.678 1064.63 135.524C1057.6 135.524 1051.6 134.258 1046.63 131.724C1041.88 129.348 1037.74 125.909 1034.53 121.674V167.014C1034.55 168.241 1034.1 169.428 1033.26 170.324C1032.82 170.783 1032.29 171.143 1031.7 171.379C1031.11 171.615 1030.47 171.723 1029.84 171.694L1013.32 171.654ZM1057.43 114.654C1063.02 114.654 1067.38 113.451 1070.5 111.044C1073.64 108.614 1076.02 105.325 1077.33 101.574C1078.81 97.4308 1079.67 93.09 1079.87 88.6944C1080 84.7944 1080 80.8911 1079.87 76.9844C1079.66 72.5853 1078.8 68.2412 1077.32 64.0944C1076 60.3482 1073.63 57.0628 1070.49 54.6344C1067.37 52.2211 1063.01 51.0144 1057.42 51.0144C1052.09 51.0144 1047.75 52.2511 1044.42 54.7244C1041.16 57.1209 1038.65 60.4045 1037.2 64.1844C1035.72 67.9688 1034.84 71.9597 1034.59 76.0144C1034.45 78.3544 1034.39 80.8244 1034.39 83.4244C1034.39 86.0244 1034.45 88.5744 1034.59 91.0444C1034.71 94.9333 1035.64 98.7541 1037.32 102.264C1038.99 105.811 1041.54 108.87 1044.73 111.144C1047.98 113.478 1052.21 114.644 1057.42 114.644L1057.43 114.654Z" fill="#413F71"/>
<path fill-rule="evenodd" clip-rule="evenodd" d="M185.238 82.6086L187.391 77.654C189.931 71.8673 190.988 65.5393 190.465 59.2422C189.942 52.9452 187.856 46.8776 184.396 41.588C180.935 36.2984 176.21 31.9536 170.646 28.9464C165.082 25.9392 158.856 24.3644 152.53 24.3644C146.204 24.3644 139.977 25.9392 134.414 28.9464C128.85 31.9536 124.124 36.2984 120.664 41.588C117.203 46.8776 115.118 52.9452 114.595 59.2422C114.072 65.5393 115.128 71.8673 117.669 77.654L95.258 87.5036C91.0882 78.0023 89.3548 67.6129 90.2144 57.2745C91.0741 46.9361 94.4996 36.9746 100.181 28.2905C105.863 19.6065 113.622 12.4736 122.757 7.53669C131.891 2.59977 142.114 0.0144653 152.5 0.0144653C162.886 0.0144653 173.109 2.59977 182.243 7.53669C191.378 12.4736 199.137 19.6065 204.819 28.2905C210.5 36.9746 213.926 46.9361 214.786 57.2745C215.645 67.6129 213.912 78.0023 209.742 87.5036L207.579 92.4581C202.497 104.033 196.252 115.062 188.938 125.376L158.79 167.895C157.868 169.196 156.641 170.251 155.216 170.969C153.792 171.686 152.213 172.045 150.618 172.012C149.022 171.98 147.459 171.558 146.065 170.784C144.671 170.009 143.488 168.905 142.619 167.568L114.038 123.612C108.065 114.428 102.849 104.775 98.4425 94.7471L95.258 87.5036L117.639 77.6937L120.823 84.9669C124.693 93.7769 129.275 102.257 134.524 110.324L151.329 136.157L169.008 111.236C175.372 102.265 180.81 92.6741 185.238 82.6086Z" fill="#413F71"/>
<path fill-rule="evenodd" clip-rule="evenodd" d="M279.75 89.7873C280.773 88.7666 281.584 87.5548 282.138 86.2209C282.692 84.8871 282.977 83.4574 282.977 82.0136C282.977 80.5698 282.692 79.1402 282.138 77.8063C281.584 76.4725 280.773 75.2606 279.75 74.2399L234.997 29.5661C233.718 28.2883 233 26.5561 233 24.75C233 22.9439 233.718 21.2116 234.997 19.9339L240.943 14.0087C241.572 13.3767 242.321 12.8751 243.146 12.5329C243.97 12.1906 244.854 12.0145 245.747 12.0145C246.64 12.0145 247.524 12.1906 248.349 12.5329C249.174 12.8751 249.922 13.3767 250.552 14.0087L295.325 58.7025C298.392 61.7644 300.825 65.3994 302.485 69.4C304.146 73.4006 305 77.6884 305 82.0186C305 86.3489 304.146 90.6367 302.485 94.6373C300.825 98.6379 298.392 102.273 295.325 105.335L250.552 150.029C249.277 151.3 247.549 152.014 245.747 152.014C243.945 152.014 242.217 151.3 240.943 150.029L234.997 144.093C233.718 142.816 233 141.083 233 139.277C233 137.471 233.718 135.739 234.997 134.461L279.75 89.7873Z" fill="#413F71"/>
<path fill-rule="evenodd" clip-rule="evenodd" d="M25.2501 74.2416C24.2272 75.2623 23.4157 76.4742 22.862 77.808C22.3084 79.1418 22.0234 80.5715 22.0234 82.0153C22.0234 83.4591 22.3084 84.8888 22.862 86.2226C23.4157 87.5564 24.2272 88.7683 25.2501 89.789L70.003 134.463C71.2817 135.741 72 137.473 72 139.279C72 141.085 71.2817 142.817 70.003 144.095L64.0573 150.02C63.4276 150.652 62.679 151.154 61.8544 151.496C61.0299 151.838 60.1457 152.014 59.2527 152.014C58.3597 152.014 57.4756 151.838 56.651 151.496C55.8265 151.154 55.0778 150.652 54.4481 150.02L9.67521 105.326C6.6078 102.265 4.17459 98.6295 2.51451 94.629C0.854435 90.6284 -9.17628e-06 86.3405 -8.79772e-06 82.0103C-8.41916e-06 77.6801 0.854437 73.3922 2.51452 69.3916C4.1746 65.3911 6.6078 61.756 9.67522 58.6942L54.4481 14.0003C55.7226 12.7288 57.4508 12.0145 59.2527 12.0145C61.0547 12.0145 62.7829 12.7288 64.0573 14.0003L70.003 19.9355C71.2818 21.2133 72 22.9455 72 24.7516C72 26.5577 71.2818 28.29 70.003 29.5677L25.2501 74.2416Z" fill="#413F71"/>
</svg>
