<svg width="1107" height="173" viewBox="0 0 1107 173" fill="none" xmlns="http://www.w3.org/2000/svg">
<path d="M386.77 135.529C380.644 135.653 374.56 134.492 368.91 132.119C363.939 129.967 359.557 126.655 356.13 122.459C352.628 118.078 349.979 113.078 348.32 107.719C346.435 101.677 345.385 95.4058 345.2 89.0792C345.073 86.7392 345.007 84.6259 345 82.7392C345 80.8592 345.07 78.7392 345.2 76.3992C345.397 70.2436 346.406 64.1409 348.2 58.2492C349.838 52.8852 352.489 47.885 356.01 43.5192C359.476 39.2736 363.887 35.8971 368.89 33.6592C374.522 31.2192 380.614 30.022 386.75 30.1492C393.77 30.1492 399.72 31.3526 404.6 33.7592C409.257 35.9881 413.415 39.1382 416.82 43.0192V4.69922C416.791 3.47166 417.247 2.28214 418.09 1.38922C418.527 0.929634 419.057 0.569418 419.646 0.333031C420.234 0.0966439 420.867 -0.0103802 421.5 0.0192247H439.09C439.708 0.00918911 440.321 0.125545 440.892 0.361142C441.463 0.596739 441.979 0.9466 442.41 1.38922C442.852 1.81811 443.202 2.33308 443.438 2.90237C443.673 3.47165 443.79 4.08318 443.78 4.69922V128.899C443.78 129.515 443.659 130.124 443.423 130.693C443.187 131.261 442.841 131.777 442.406 132.212C441.97 132.647 441.453 132.991 440.884 133.226C440.315 133.46 439.705 133.581 439.09 133.579H421.68C421.045 133.609 420.411 133.502 419.821 133.266C419.231 133.029 418.699 132.669 418.26 132.209C417.417 131.316 416.961 130.127 416.99 128.899V121.679C413.605 125.842 410.384 129.249 405.6 131.679C400.593 134.246 394.317 135.529 386.77 135.529ZM393.99 114.649C399.45 114.649 403.807 113.413 407.06 110.939C410.286 108.505 412.783 105.233 414.28 101.479C415.828 97.7266 416.688 93.7263 416.82 89.6692C416.95 87.3292 417.02 84.8192 417.02 82.1592C417.02 79.4992 416.95 76.9792 416.82 74.6392C416.693 70.7511 415.763 66.9312 414.09 63.4192C412.422 59.8699 409.866 56.8112 406.67 54.5392C403.423 52.1926 399.197 51.0192 393.99 51.0192C388.517 51.0192 384.183 52.2226 380.99 54.6292C377.802 57.0347 375.392 60.3245 374.06 64.0892C372.582 68.2496 371.736 72.608 371.55 77.0192C371.41 80.9326 371.41 84.8359 371.55 88.7292C371.745 93.1249 372.597 97.4665 374.08 101.609C375.409 105.378 377.819 108.672 381.01 111.079C384.203 113.466 388.53 114.656 393.99 114.649Z" fill="#4831D4"/>
<path d="M500.26 135.529C485.82 135.529 474.37 131.366 465.91 123.039C457.45 114.713 452.897 102.873 452.25 87.5193C452.12 86.2193 452.05 84.5193 452.05 82.5193C452.033 80.9235 452.099 79.328 452.25 77.7393C452.77 67.8459 455.013 59.3559 458.98 52.2693C462.79 45.3368 468.515 39.6471 475.47 35.8793C482.503 32.0393 490.767 30.1193 500.26 30.1193C510.8 30.1193 519.647 32.2993 526.8 36.6593C533.89 40.9534 539.532 47.2711 543 54.7993C546.64 62.5526 548.46 71.4993 548.46 81.6393V85.7393C548.471 86.3555 548.355 86.9674 548.119 87.5368C547.884 88.1063 547.533 88.6211 547.09 89.0493C546.63 89.5064 546.082 89.864 545.478 90.0997C544.874 90.3354 544.228 90.4442 543.58 90.4193H478.79V92.0193C478.873 96.3434 479.765 100.614 481.42 104.609C482.936 108.303 485.437 111.51 488.65 113.879C491.969 116.262 495.976 117.495 500.06 117.389C505.662 117.606 511.131 115.645 515.32 111.919C516.54 110.858 517.652 109.679 518.64 108.399C519.367 107.262 520.333 106.296 521.47 105.569C522.501 105.197 523.595 105.034 524.69 105.089H541.47C542.655 105.046 543.81 105.466 544.69 106.259C545.1 106.619 545.414 107.075 545.602 107.587C545.791 108.099 545.849 108.65 545.77 109.189C545.64 111.269 544.56 113.799 542.55 116.799C540.152 120.18 537.216 123.146 533.86 125.579C529.564 128.71 524.784 131.115 519.71 132.699C513.422 134.685 506.854 135.641 500.26 135.529ZM478.79 74.0193H521.92V73.4293C522.013 68.8444 521.148 64.2905 519.38 60.0593C517.847 56.3968 515.27 53.2667 511.97 51.0593C508.428 48.9514 504.382 47.8388 500.26 47.8388C496.138 47.8388 492.092 48.9514 488.55 51.0593C485.255 53.2486 482.702 56.3871 481.23 60.0593C479.525 64.3063 478.695 68.8538 478.79 73.4293V74.0193Z" fill="#4831D4"/>
<path d="M589.49 133.579C588.667 133.649 587.837 133.556 587.05 133.306C586.262 133.055 585.532 132.652 584.9 132.119C583.907 131.119 583.083 129.964 582.46 128.699L545.97 38.1492C545.726 37.5938 545.593 36.9958 545.58 36.3892C545.588 35.2538 546.042 34.1672 546.845 33.3644C547.648 32.5616 548.735 32.1071 549.87 32.0992H565.68C566.322 32.0494 566.967 32.1369 567.572 32.3559C568.177 32.5749 568.729 32.9203 569.19 33.3692C569.874 34.0649 570.406 34.896 570.75 35.8092L596.75 104.309L622.75 35.8092C623.094 34.896 623.626 34.0649 624.31 33.3692C624.773 32.9195 625.326 32.5737 625.933 32.3547C626.54 32.1357 627.187 32.0486 627.83 32.0992H643.83C644.363 32.1066 644.89 32.2231 645.376 32.4416C645.863 32.66 646.3 32.9756 646.66 33.3692C647.063 33.7577 647.383 34.2238 647.602 34.7394C647.82 35.2549 647.932 35.8093 647.93 36.3692C647.921 36.961 647.854 37.5504 647.73 38.1292L611.04 128.679C610.521 129.978 609.722 131.145 608.7 132.099C607.383 133.165 605.709 133.687 604.02 133.559L589.49 133.579Z" fill="#4831D4"/>
<path d="M691.62 135.529C684.851 135.676 678.102 134.754 671.62 132.799C666.744 131.328 662.155 129.035 658.05 126.019C654.986 123.765 652.343 120.989 650.24 117.819C648.55 115.089 647.64 112.819 647.51 110.989C647.417 110.36 647.484 109.717 647.706 109.121C647.929 108.525 648.298 107.994 648.78 107.579C649.658 106.77 650.806 106.317 652 106.309H667.42C667.88 106.304 668.339 106.368 668.78 106.499C669.364 106.764 669.888 107.145 670.32 107.619C672.01 109.059 673.8 110.549 675.69 112.109C677.728 113.762 679.995 115.109 682.42 116.109C686.077 117.401 689.956 117.947 693.828 117.713C697.7 117.48 701.485 116.472 704.96 114.749C706.249 114.016 707.364 113.012 708.227 111.806C709.09 110.6 709.681 109.222 709.96 107.765C710.238 106.309 710.197 104.809 709.84 103.37C709.483 101.931 708.818 100.586 707.89 99.4292C706.39 97.7425 703.627 96.2125 699.6 94.8392C693.96 93.0545 688.225 91.5888 682.42 90.4492C676.131 89.1074 670.046 86.9456 664.32 84.0192C659.923 81.8017 656.213 78.4274 653.59 74.2592C651.105 69.9257 649.886 64.9823 650.07 59.9904C650.253 54.9985 651.833 50.1582 654.63 46.0192C657.69 41.4325 662.253 37.6392 668.32 34.6392C674.387 31.6392 681.9 30.1425 690.86 30.1492C697.075 30.031 703.269 30.9192 709.2 32.7792C713.854 34.2544 718.242 36.4621 722.2 39.3192C725.239 41.5133 727.906 44.1805 730.1 47.2192C731.92 49.8859 732.897 52.1959 733.03 54.1492C733.124 54.7713 733.067 55.4069 732.863 56.0021C732.659 56.5974 732.315 57.1349 731.86 57.5692C731.025 58.3823 729.906 58.8379 728.74 58.8392H714.25C713.643 58.8503 713.042 58.713 712.5 58.4392C711.947 58.1599 711.425 57.8249 710.94 57.4392C709.5 56.1059 707.937 54.7059 706.25 53.2392C704.415 51.6584 702.343 50.376 700.11 49.4392C697.089 48.2922 693.869 47.7618 690.64 47.8792C685.687 47.8792 681.913 48.9525 679.32 51.0992C678.087 52.055 677.093 53.2842 676.416 54.6898C675.739 56.0955 675.398 57.6392 675.42 59.1992C675.37 61.2994 676.04 63.3534 677.32 65.0192C678.56 66.6525 681.067 68.1825 684.84 69.6092C690.429 71.5031 696.152 72.9772 701.96 74.0192C710.673 75.5792 717.6 77.8892 722.74 80.9492C727.88 84.0092 731.523 87.5325 733.67 91.5192C735.839 95.5702 736.947 100.104 736.89 104.699C736.942 110.39 735.126 115.94 731.72 120.499C728.273 125.166 723.2 128.833 716.5 131.499C709.8 134.166 701.507 135.509 691.62 135.529Z" fill="#4831D4"/>
<path d="M750.71 133.579C750.095 133.582 749.485 133.463 748.916 133.228C748.347 132.994 747.83 132.65 747.395 132.214C746.96 131.779 746.615 131.262 746.381 130.693C746.147 130.124 746.027 129.515 746.03 128.899V36.7792C746.027 36.1639 746.147 35.5542 746.381 34.9852C746.615 34.4162 746.96 33.8992 747.395 33.4641C747.83 33.029 748.347 32.6844 748.916 32.4501C749.485 32.2158 750.095 32.0966 750.71 32.0993H765.93C766.545 32.0979 767.155 32.218 767.724 32.4526C768.293 32.6872 768.81 33.0317 769.246 33.4664C769.681 33.9012 770.027 34.4175 770.263 34.986C770.499 35.5544 770.62 36.1638 770.62 36.7792V43.4192C773.582 39.5783 777.333 36.4173 781.62 34.1492C786.709 31.4939 792.37 30.1208 798.11 30.1492C812.943 29.8892 823.277 35.6792 829.11 47.5192C832.208 42.211 836.705 37.8559 842.11 34.9292C847.861 31.7178 854.353 30.0698 860.94 30.1492C867.39 30.0683 873.749 31.6821 879.38 34.8292C885.085 38.1245 889.656 43.0722 892.49 49.0192C895.71 55.3059 897.32 63.2626 897.32 72.8893V128.889C897.323 129.505 897.203 130.114 896.969 130.683C896.735 131.252 896.39 131.769 895.955 132.204C895.52 132.64 895.003 132.984 894.434 133.218C893.865 133.453 893.255 133.572 892.64 133.569H876.64C875.399 133.569 874.208 133.076 873.331 132.199C872.453 131.321 871.96 130.13 871.96 128.889V74.4492C871.96 68.5892 871.113 63.9226 869.42 60.4492C868.023 57.3187 865.619 54.7454 862.59 53.1392C859.596 51.6831 856.299 50.9566 852.97 51.0192C849.981 51.0509 847.041 51.7876 844.39 53.1693C841.341 54.802 838.889 57.3619 837.39 60.4792C835.57 63.9326 834.66 68.5992 834.66 74.4792V128.929C834.66 129.545 834.539 130.154 834.303 130.723C834.067 131.291 833.721 131.807 833.286 132.242C832.85 132.677 832.333 133.021 831.764 133.256C831.195 133.49 830.585 133.611 829.97 133.609H813.97C813.355 133.612 812.745 133.493 812.176 133.258C811.607 133.024 811.09 132.68 810.655 132.244C810.22 131.809 809.875 131.292 809.641 130.723C809.407 130.154 809.287 129.545 809.29 128.929V74.4492C809.29 68.5892 808.377 63.9226 806.55 60.4492C805.049 57.3331 802.598 54.7737 799.55 53.1392C796.684 51.7126 793.521 50.9861 790.32 51.0192C787.251 51.0393 784.234 51.8082 781.53 53.2593C778.509 54.9344 776.069 57.4869 774.53 60.5793C772.71 63.9692 771.8 68.5792 771.8 74.4392V128.889C771.8 129.505 771.679 130.114 771.443 130.683C771.207 131.251 770.861 131.767 770.426 132.202C769.99 132.637 769.473 132.981 768.904 133.216C768.335 133.45 767.725 133.571 767.11 133.569L750.71 133.579Z" fill="#4831D4"/>
<path d="M942.51 135.529C936.17 135.626 929.894 134.257 924.17 131.529C918.996 129.115 914.522 125.422 911.17 120.799C907.166 115.051 905.587 107.958 906.774 101.054C907.96 94.15 911.817 87.9909 917.51 83.9092C924.93 78.5225 934.623 74.9125 946.59 73.0792L973.32 69.1792V65.0792C973.32 59.6192 971.953 55.3925 969.22 52.3992C966.487 49.4059 961.82 47.9092 955.22 47.9092C950.553 47.9092 946.747 48.8525 943.8 50.7392C940.933 52.5501 938.66 55.1609 937.26 58.2492C936.813 59.0407 936.159 59.6954 935.368 60.143C934.577 60.5905 933.679 60.8139 932.77 60.7892H917.32C916.731 60.8353 916.139 60.7547 915.583 60.5529C915.028 60.3511 914.522 60.0327 914.1 59.6192C913.349 58.7547 912.962 57.6329 913.02 56.4892C913.355 53.795 914.254 51.2018 915.66 48.8792C917.572 45.5522 920.084 42.609 923.07 40.1992C926.955 37.0858 931.355 34.6762 936.07 33.0792C941.403 31.1192 947.843 30.1425 955.39 30.1492C963.59 30.1492 970.52 31.1492 976.18 33.1492C981.243 34.8139 985.874 37.5803 989.74 41.2492C993.096 44.5946 995.632 48.6709 997.15 53.1592C998.735 57.8074 999.529 62.6884 999.5 67.5992V128.879C999.5 129.495 999.379 130.104 999.143 130.672C998.907 131.241 998.561 131.757 998.126 132.192C997.69 132.627 997.173 132.971 996.604 133.206C996.035 133.44 995.426 133.561 994.81 133.559H979C978.367 133.589 977.734 133.482 977.146 133.245C976.558 133.009 976.027 132.649 975.59 132.189C974.747 131.296 974.291 130.107 974.32 128.879V121.259C972.384 123.853 970.083 126.153 967.49 128.089C964.341 130.46 960.81 132.276 957.05 133.459C952.346 134.923 947.436 135.622 942.51 135.529ZM949.15 117.019C953.465 117.059 957.722 116.028 961.54 114.019C965.326 111.998 968.393 108.854 970.32 105.019C972.467 100.919 973.54 95.7459 973.54 89.4992V85.3792L954.02 88.4992C946.347 89.6725 940.623 91.5592 936.85 94.1592C933.077 96.7592 931.19 99.9459 931.19 103.719C931.126 106.403 932.068 109.014 933.83 111.039C935.644 113.097 937.964 114.644 940.56 115.529C943.316 116.516 946.222 117.02 949.15 117.019Z" fill="#4831D4"/>
<path d="M1013.32 171.659C1012.08 171.659 1010.89 171.166 1010.01 170.288C1009.13 169.411 1008.64 168.22 1008.64 166.979V36.7792C1008.64 35.538 1009.13 34.3476 1010.01 33.4699C1010.89 32.5923 1012.08 32.0992 1013.32 32.0992H1028.74C1029.37 32.0708 1030.01 32.1783 1030.6 32.4146C1031.19 32.6508 1031.72 33.0104 1032.16 33.4692C1033 34.365 1033.45 35.5526 1033.43 36.7792V44.5892C1036.72 40.2842 1040.92 36.7544 1045.72 34.2492C1050.79 31.5092 1057.1 30.1425 1064.65 30.1492C1070.82 29.9969 1076.94 31.1275 1082.65 33.4692C1087.57 35.5677 1091.91 38.8112 1095.32 42.9292C1098.81 47.2406 1101.46 52.174 1103.12 57.4692C1105 63.4803 1106.04 69.7229 1106.21 76.0192C1106.34 78.2325 1106.4 80.5092 1106.4 82.8492C1106.4 85.1892 1106.34 87.5225 1106.21 89.8492C1106.15 95.983 1105.18 102.074 1103.32 107.919C1101.64 113.194 1098.95 118.096 1095.42 122.359C1091.93 126.491 1087.56 129.792 1082.63 132.019C1076.96 134.485 1070.81 135.682 1064.63 135.529C1057.6 135.529 1051.6 134.263 1046.63 131.729C1041.88 129.353 1037.74 125.914 1034.53 121.679V167.019C1034.55 168.246 1034.1 169.433 1033.26 170.329C1032.82 170.788 1032.29 171.148 1031.7 171.384C1031.11 171.62 1030.47 171.728 1029.84 171.699L1013.32 171.659ZM1057.43 114.659C1063.02 114.659 1067.38 113.456 1070.5 111.049C1073.64 108.619 1076.02 105.33 1077.33 101.579C1078.81 97.4356 1079.67 93.0947 1079.87 88.6992C1080 84.7992 1080 80.8959 1079.87 76.9892C1079.66 72.59 1078.8 68.246 1077.32 64.0992C1076 60.353 1073.63 57.0676 1070.49 54.6392C1067.37 52.2259 1063.01 51.0192 1057.42 51.0192C1052.09 51.0192 1047.75 52.2559 1044.42 54.7292C1041.16 57.1257 1038.65 60.4093 1037.2 64.1892C1035.72 67.9735 1034.84 71.9645 1034.59 76.0192C1034.45 78.3592 1034.39 80.8292 1034.39 83.4292C1034.39 86.0292 1034.45 88.5792 1034.59 91.0492C1034.71 94.938 1035.64 98.7589 1037.32 102.269C1038.99 105.816 1041.54 108.874 1044.73 111.149C1047.98 113.483 1052.21 114.649 1057.42 114.649L1057.43 114.659Z" fill="#4831D4"/>
<path fill-rule="evenodd" clip-rule="evenodd" d="M185.238 82.6134L187.391 77.6589C189.931 71.8721 190.988 65.5441 190.465 59.2471C189.942 52.95 187.856 46.8824 184.396 41.5928C180.935 36.3032 176.21 31.9584 170.646 28.9512C165.082 25.944 158.856 24.3692 152.53 24.3692C146.204 24.3692 139.977 25.944 134.414 28.9512C128.85 31.9584 124.124 36.3032 120.664 41.5928C117.203 46.8824 115.118 52.95 114.595 59.2471C114.072 65.5441 115.128 71.8721 117.669 77.6589L95.258 87.5084C91.0882 78.0071 89.3548 67.6177 90.2144 57.2793C91.0741 46.9409 94.4996 36.9794 100.181 28.2954C105.863 19.6113 113.622 12.4784 122.757 7.54151C131.891 2.60459 142.114 0.0192871 152.5 0.0192871C162.886 0.0192871 173.109 2.60459 182.243 7.54151C191.378 12.4784 199.137 19.6113 204.819 28.2954C210.5 36.9794 213.926 46.9409 214.786 57.2793C215.645 67.6177 213.912 78.0071 209.742 87.5084L207.579 92.4629C202.497 104.037 196.252 115.067 188.938 125.381L158.79 167.9C157.868 169.201 156.641 170.256 155.216 170.973C153.792 171.691 152.213 172.05 150.618 172.017C149.022 171.985 147.459 171.563 146.065 170.788C144.671 170.014 143.488 168.91 142.619 167.573L114.038 123.617C108.065 114.433 102.849 104.78 98.4425 94.7519L95.258 87.5084L117.639 77.6985L120.823 84.9717C124.693 93.7817 129.275 102.262 134.524 110.329L151.329 136.162L169.008 111.241C175.372 102.27 180.81 92.6789 185.238 82.6134Z" fill="#4831D4"/>
<path fill-rule="evenodd" clip-rule="evenodd" d="M279.75 89.7922C280.773 88.7715 281.584 87.5596 282.138 86.2258C282.692 84.8919 282.977 83.4623 282.977 82.0184C282.977 80.5746 282.692 79.145 282.138 77.8111C281.584 76.4773 280.773 75.2654 279.75 74.2447L234.997 29.5709C233.718 28.2931 233 26.5609 233 24.7548C233 22.9487 233.718 21.2164 234.997 19.9387L240.943 14.0135C241.572 13.3815 242.321 12.8799 243.146 12.5377C243.97 12.1955 244.854 12.0193 245.747 12.0193C246.64 12.0193 247.524 12.1955 248.349 12.5377C249.174 12.8799 249.922 13.3815 250.552 14.0135L295.325 58.7073C298.392 61.7692 300.825 65.4042 302.485 69.4048C304.146 73.4054 305 77.6932 305 82.0234C305 86.3537 304.146 90.6415 302.485 94.6421C300.825 98.6427 298.392 102.278 295.325 105.34L250.552 150.033C249.277 151.305 247.549 152.019 245.747 152.019C243.945 152.019 242.217 151.305 240.943 150.033L234.997 144.098C233.718 142.82 233 141.088 233 139.282C233 137.476 233.718 135.744 234.997 134.466L279.75 89.7922Z" fill="#4831D4"/>
<path fill-rule="evenodd" clip-rule="evenodd" d="M25.2501 74.2464C24.2272 75.2671 23.4157 76.479 22.862 77.8128C22.3084 79.1467 22.0234 80.5763 22.0234 82.0201C22.0234 83.4639 22.3084 84.8936 22.862 86.2274C23.4157 87.5613 24.2272 88.7731 25.2501 89.7938L70.003 134.468C71.2817 135.745 72 137.478 72 139.284C72 141.09 71.2817 142.822 70.003 144.1L64.0573 150.025C63.4276 150.657 62.679 151.159 61.8544 151.501C61.0299 151.843 60.1457 152.019 59.2527 152.019C58.3597 152.019 57.4756 151.843 56.651 151.501C55.8265 151.159 55.0778 150.657 54.4481 150.025L9.67521 105.331C6.6078 102.269 4.17459 98.6344 2.51451 94.6338C0.854435 90.6332 -9.17628e-06 86.3454 -8.79772e-06 82.0151C-8.41916e-06 77.6849 0.854437 73.3971 2.51452 69.3965C4.1746 65.3959 6.6078 61.7609 9.67522 58.699L54.4481 14.0052C55.7226 12.7336 57.4508 12.0193 59.2527 12.0193C61.0547 12.0193 62.7829 12.7336 64.0573 14.0052L70.003 19.9404C71.2818 21.2181 72 22.9504 72 24.7565C72 26.5626 71.2818 28.2948 70.003 29.5726L25.2501 74.2464Z" fill="#4831D4"/>
</svg>
