<svg width="1107" height="173" xmlns="http://www.w3.org/2000/svg" fill="none">

 <g>
  <title>Layer 1</title>
  <path id="svg_1" fill="#ffffff" d="m386.77,135.515c-6.126,0.124 -12.21,-1.038 -17.86,-3.41c-4.971,-2.152 -9.353,-5.465 -12.78,-9.66c-3.502,-4.382 -6.151,-9.382 -7.81,-14.74c-1.885,-6.042 -2.935,-12.3136 -3.12,-18.6402c-0.127,-2.34 -0.193,-4.4533 -0.2,-6.34c0,-1.88 0.07,-4 0.2,-6.34c0.197,-6.1556 1.206,-12.2583 3,-18.15c1.638,-5.364 4.289,-10.3642 7.81,-14.73c3.466,-4.2456 7.877,-7.6221 12.88,-9.86c5.632,-2.44 11.724,-3.6372 17.86,-3.51c7.02,0 12.97,1.2034 17.85,3.61c4.657,2.2289 8.815,5.379 12.22,9.26l0,-38.31998c-0.029,-1.22756 0.427,-2.41708 1.27,-3.31c0.437,-0.45959 0.967,-0.81981 1.556,-1.05619c0.588,-0.23639 1.221,-0.34341 1.854,-0.31381l17.59,0c0.618,-0.01004 1.231,0.10632 1.802,0.34192c0.571,0.23559 1.087,0.58546 1.518,1.02808c0.442,0.42888 0.792,0.94386 1.028,1.51314c0.235,0.56929 0.352,1.18082 0.342,1.79686l0,124.20018c0,0.615 -0.121,1.225 -0.357,1.793c-0.236,0.569 -0.582,1.085 -1.017,1.52c-0.436,0.434 -0.953,0.779 -1.522,1.013c-0.569,0.235 -1.179,0.355 -1.794,0.354l-17.41,0c-0.635,0.03 -1.269,-0.077 -1.859,-0.314c-0.59,-0.236 -1.122,-0.596 -1.561,-1.056c-0.843,-0.893 -1.299,-2.083 -1.27,-3.31l0,-7.22c-3.385,4.163 -6.606,7.57 -11.39,10c-5.007,2.566 -11.283,3.85 -18.83,3.85zm7.22,-20.88c5.46,0 9.817,-1.237 13.07,-3.71c3.226,-2.435 5.723,-5.707 7.22,-9.46c1.548,-3.7528 2.408,-7.7531 2.54,-11.8102c0.13,-2.34 0.2,-4.85 0.2,-7.51c0,-2.66 -0.07,-5.18 -0.2,-7.52c-0.127,-3.8881 -1.057,-7.708 -2.73,-11.22c-1.668,-3.5493 -4.224,-6.608 -7.42,-8.88c-3.247,-2.3466 -7.473,-3.52 -12.68,-3.52c-5.473,0 -9.807,1.2034 -13,3.61c-3.188,2.4055 -5.598,5.6953 -6.93,9.46c-1.478,4.1604 -2.324,8.5188 -2.51,12.93c-0.14,3.9134 -0.14,7.8167 0,11.71c0.195,4.3957 1.047,8.7373 2.53,12.8802c1.329,3.769 3.739,7.063 6.93,9.47c3.193,2.386 7.52,3.576 12.98,3.57z"/>
  <path id="svg_2" fill="#ffffff" d="m500.26,135.515c-14.44,0 -25.89,-4.164 -34.35,-12.49c-8.46,-8.327 -13.013,-20.167 -13.66,-35.5202c-0.13,-1.3 -0.2,-3 -0.2,-5c-0.017,-1.5957 0.049,-3.1913 0.2,-4.78c0.52,-9.8933 2.763,-18.3833 6.73,-25.47c3.81,-6.9324 9.535,-12.6221 16.49,-16.39c7.033,-3.84 15.297,-5.76 24.79,-5.76c10.54,0 19.387,2.18 26.54,6.54c7.09,4.2941 12.732,10.6119 16.2,18.14c3.64,7.7534 5.46,16.7 5.46,26.84l0,4.1c0.011,0.6162 -0.105,1.2281 -0.341,1.7976c-0.235,0.5694 -0.586,1.0843 -1.029,1.5124c-0.46,0.4572 -1.008,0.8148 -1.612,1.0505c-0.604,0.2357 -1.25,0.3445 -1.898,0.3195l-64.79,0l0,1.6c0.083,4.3241 0.975,8.5942 2.63,12.5902c1.516,3.694 4.017,6.9 7.23,9.27c3.319,2.383 7.326,3.616 11.41,3.51c5.602,0.216 11.071,-1.744 15.26,-5.47c1.22,-1.061 2.332,-2.24 3.32,-3.52c0.727,-1.138 1.693,-2.103 2.83,-2.83c1.031,-0.372 2.125,-0.536 3.22,-0.48l16.78,0c1.185,-0.044 2.34,0.376 3.22,1.17c0.41,0.359 0.724,0.816 0.912,1.328c0.189,0.511 0.247,1.062 0.168,1.602c-0.13,2.08 -1.21,4.61 -3.22,7.61c-2.398,3.381 -5.334,6.347 -8.69,8.78c-4.296,3.13 -9.076,5.536 -14.15,7.12c-6.288,1.986 -12.856,2.941 -19.45,2.83zm-21.47,-61.5102l43.13,0l0,-0.59c0.093,-4.5849 -0.772,-9.1387 -2.54,-13.37c-1.533,-3.6624 -4.11,-6.7925 -7.41,-9c-3.542,-2.1078 -7.588,-3.2204 -11.71,-3.2204c-4.122,0 -8.168,1.1126 -11.71,3.2204c-3.295,2.1894 -5.848,5.3279 -7.32,9c-1.705,4.2471 -2.535,8.7946 -2.44,13.37l0,0.59z"/>
  <path id="svg_3" fill="#ffffff" d="m589.49,133.565c-0.823,0.07 -1.653,-0.023 -2.44,-0.273c-0.788,-0.251 -1.518,-0.654 -2.15,-1.187c-0.993,-1 -1.817,-2.155 -2.44,-3.42l-36.49,-90.5502c-0.244,-0.5553 -0.377,-1.1534 -0.39,-1.76c0.008,-1.1353 0.462,-2.2219 1.265,-3.0248c0.803,-0.8028 1.89,-1.2573 3.025,-1.2652l15.81,0c0.642,-0.0498 1.287,0.0377 1.892,0.2567c0.605,0.219 1.157,0.5644 1.618,1.0133c0.684,0.6957 1.216,1.5268 1.56,2.44l26,68.5002l26,-68.5002c0.344,-0.9132 0.876,-1.7443 1.56,-2.44c0.463,-0.4497 1.016,-0.7955 1.623,-1.0145c0.607,-0.219 1.254,-0.3061 1.897,-0.2555l16,0c0.533,0.0075 1.06,0.124 1.546,0.3424c0.487,0.2184 0.924,0.5341 1.284,0.9276c0.403,0.3885 0.723,0.8546 0.942,1.3702c0.218,0.5156 0.33,1.07 0.328,1.6298c-0.009,0.5918 -0.076,1.1812 -0.2,1.76l-36.69,90.5502c-0.519,1.298 -1.318,2.466 -2.34,3.42c-1.317,1.066 -2.991,1.588 -4.68,1.46l-14.53,0.02z"/>
  <path id="svg_4" fill="#ffffff" d="m691.62,135.515c-6.769,0.146 -13.518,-0.775 -20,-2.73c-4.876,-1.471 -9.465,-3.764 -13.57,-6.78c-3.064,-2.255 -5.707,-5.03 -7.81,-8.2c-1.69,-2.73 -2.6,-5 -2.73,-6.83c-0.093,-0.63 -0.026,-1.272 0.196,-1.869c0.223,-0.596 0.592,-1.126 1.074,-1.541c0.878,-0.809 2.026,-1.262 3.22,-1.27l15.42,0c0.46,-0.005 0.919,0.059 1.36,0.19c0.584,0.265 1.108,0.646 1.54,1.12c1.69,1.44 3.48,2.93 5.37,4.49c2.038,1.652 4.305,3 6.73,4c3.657,1.292 7.536,1.837 11.408,1.604c3.872,-0.234 7.657,-1.242 11.132,-2.964c1.289,-0.733 2.404,-1.738 3.267,-2.943c0.863,-1.206 1.454,-2.585 1.733,-4.041c0.278,-1.457 0.237,-2.956 -0.12,-4.395c-0.357,-1.44 -1.022,-2.784 -1.95,-3.9412c-1.5,-1.6867 -4.263,-3.2167 -8.29,-4.59c-5.64,-1.7847 -11.375,-3.2504 -17.18,-4.39c-6.289,-1.3418 -12.374,-3.5036 -18.1,-6.43c-4.397,-2.2175 -8.107,-5.5918 -10.73,-9.76c-2.485,-4.3335 -3.704,-9.2769 -3.52,-14.2688c0.183,-4.9919 1.763,-9.8322 4.56,-13.9712c3.06,-4.5867 7.623,-8.38 13.69,-11.38c6.067,-3 13.58,-4.4967 22.54,-4.49c6.215,-0.1182 12.409,0.7699 18.34,2.63c4.654,1.4752 9.042,3.6829 13,6.54c3.039,2.1941 5.706,4.8613 7.9,7.9c1.82,2.6667 2.797,4.9767 2.93,6.93c0.094,0.6221 0.037,1.2576 -0.167,1.8529c-0.204,0.5953 -0.548,1.1328 -1.003,1.5671c-0.835,0.8131 -1.954,1.2687 -3.12,1.27l-14.49,0c-0.607,0.0111 -1.208,-0.1262 -1.75,-0.4c-0.553,-0.2793 -1.075,-0.6143 -1.56,-1c-1.44,-1.3333 -3.003,-2.7333 -4.69,-4.2c-1.835,-1.5808 -3.907,-2.8632 -6.14,-3.8c-3.021,-1.147 -6.241,-1.6774 -9.47,-1.56c-4.953,0 -8.727,1.0733 -11.32,3.22c-1.233,0.9558 -2.227,2.185 -2.904,3.5906c-0.677,1.4057 -1.018,2.9494 -0.996,4.5094c-0.05,2.1001 0.62,4.1542 1.9,5.82c1.24,1.6333 3.747,3.1633 7.52,4.59c5.589,1.8939 11.312,3.368 17.12,4.41c8.713,1.56 15.64,3.87 20.78,6.93c5.14,3.06 8.783,6.5833 10.93,10.57c2.169,4.051 3.277,8.5852 3.22,13.1802c0.052,5.69 -1.764,11.241 -5.17,15.8c-3.447,4.666 -8.52,8.333 -15.22,11c-6.7,2.666 -14.993,4.01 -24.88,4.03z"/>
  <path id="svg_5" fill="#ffffff" d="m750.71,133.565c-0.615,0.002 -1.225,-0.117 -1.794,-0.351c-0.569,-0.234 -1.086,-0.579 -1.521,-1.014c-0.435,-0.435 -0.78,-0.952 -1.014,-1.521c-0.234,-0.569 -0.354,-1.179 -0.351,-1.794l0,-92.1202c-0.003,-0.6153 0.117,-1.2251 0.351,-1.7941c0.234,-0.569 0.579,-1.0859 1.014,-1.521c0.435,-0.4352 0.952,-0.7798 1.521,-1.014c0.569,-0.2343 1.179,-0.3535 1.794,-0.3509l15.22,0c0.615,-0.0013 1.225,0.1188 1.794,0.3534c0.569,0.2346 1.086,0.5791 1.522,1.0138c0.435,0.4347 0.781,0.9511 1.017,1.5195c0.236,0.5685 0.357,1.1779 0.357,1.7933l0,6.64c2.962,-3.8409 6.713,-7.002 11,-9.27c5.089,-2.6554 10.75,-4.0284 16.49,-4c14.833,-0.26 25.167,5.53 31,17.37c3.098,-5.3082 7.595,-9.6633 13,-12.59c5.751,-3.2114 12.243,-4.8595 18.83,-4.78c6.45,-0.0809 12.809,1.5329 18.44,4.68c5.705,3.2953 10.276,8.243 13.11,14.19c3.22,6.2867 4.83,14.2433 4.83,23.87l0,56.0002c0.003,0.615 -0.117,1.225 -0.351,1.794c-0.234,0.569 -0.579,1.086 -1.014,1.521c-0.435,0.435 -0.952,0.78 -1.521,1.014c-0.569,0.234 -1.179,0.353 -1.794,0.351l-16,0c-1.241,0 -2.432,-0.493 -3.309,-1.371c-0.878,-0.878 -1.371,-2.068 -1.371,-3.309l0,-54.4402c0,-5.86 -0.847,-10.5267 -2.54,-14c-1.397,-3.1306 -3.801,-5.7038 -6.83,-7.31c-2.994,-1.4561 -6.291,-2.1826 -9.62,-2.12c-2.989,0.0317 -5.929,0.7683 -8.58,2.15c-3.049,1.6327 -5.501,4.1927 -7,7.31c-1.82,3.4533 -2.73,8.12 -2.73,14l0,54.4502c0,0.615 -0.121,1.225 -0.357,1.793c-0.236,0.569 -0.582,1.085 -1.017,1.52c-0.436,0.434 -0.953,0.779 -1.522,1.013c-0.569,0.235 -1.179,0.355 -1.794,0.354l-16,0c-0.615,0.002 -1.225,-0.117 -1.794,-0.351c-0.569,-0.234 -1.086,-0.579 -1.521,-1.014c-0.435,-0.435 -0.78,-0.952 -1.014,-1.521c-0.234,-0.569 -0.354,-1.179 -0.351,-1.794l0,-54.4802c0,-5.86 -0.913,-10.5267 -2.74,-14c-1.501,-3.1161 -3.952,-5.6756 -7,-7.31c-2.866,-1.4266 -6.029,-2.1532 -9.23,-2.12c-3.069,0.0201 -6.086,0.789 -8.79,2.24c-3.021,1.6752 -5.461,4.2277 -7,7.32c-1.82,3.39 -2.73,8 -2.73,13.86l0,54.4502c0,0.615 -0.121,1.225 -0.357,1.793c-0.236,0.569 -0.582,1.085 -1.017,1.52c-0.436,0.434 -0.953,0.779 -1.522,1.013c-0.569,0.235 -1.179,0.355 -1.794,0.354l-16.4,0.01z"/>
  <path id="svg_6" fill="#ffffff" d="m942.51,135.515c-6.34,0.096 -12.616,-1.273 -18.34,-4c-5.174,-2.415 -9.648,-6.108 -13,-10.73c-4.004,-5.748 -5.583,-12.842 -4.396,-19.746c1.186,-6.9034 5.043,-13.0625 10.736,-17.1442c7.42,-5.3866 17.113,-8.9966 29.08,-10.83l26.73,-3.9l0,-4.1c0,-5.46 -1.367,-9.6866 -4.1,-12.68c-2.733,-2.9933 -7.4,-4.49 -14,-4.49c-4.667,0 -8.473,0.9434 -11.42,2.83c-2.867,1.811 -5.14,4.4217 -6.54,7.51c-0.447,0.7915 -1.101,1.4463 -1.892,1.8938c-0.791,0.4475 -1.689,0.6709 -2.598,0.6462l-15.45,0c-0.589,0.0461 -1.181,-0.0345 -1.737,-0.2363c-0.555,-0.2018 -1.061,-0.5201 -1.483,-0.9337c-0.751,-0.8645 -1.138,-1.9863 -1.08,-3.13c0.335,-2.6942 1.234,-5.2873 2.64,-7.61c1.912,-3.327 4.424,-6.2702 7.41,-8.68c3.885,-3.1133 8.285,-5.523 13,-7.12c5.333,-1.96 11.773,-2.9366 19.32,-2.93c8.2,0 15.13,1 20.79,3c5.063,1.6648 9.694,4.4311 13.56,8.1c3.356,3.3454 5.892,7.4217 7.41,11.91c1.585,4.6482 2.379,9.5292 2.35,14.44l0,61.2802c0,0.615 -0.121,1.225 -0.357,1.793c-0.236,0.569 -0.582,1.085 -1.017,1.52c-0.436,0.434 -0.953,0.779 -1.522,1.013c-0.569,0.235 -1.178,0.355 -1.794,0.354l-15.81,0c-0.633,0.029 -1.266,-0.078 -1.854,-0.314c-0.588,-0.236 -1.119,-0.597 -1.556,-1.056c-0.843,-0.893 -1.299,-2.083 -1.27,-3.31l0,-7.62c-1.936,2.593 -4.237,4.894 -6.83,6.83c-3.149,2.37 -6.68,4.186 -10.44,5.37c-4.704,1.464 -9.614,2.163 -14.54,2.07zm6.64,-18.51c4.315,0.039 8.572,-0.991 12.39,-3c3.786,-2.022 6.853,-5.165 8.78,-9c2.147,-4.1 3.22,-9.2735 3.22,-15.5202l0,-4.12l-19.52,3.12c-7.673,1.1734 -13.397,3.06 -17.17,5.66c-3.773,2.6 -5.66,5.7867 -5.66,9.5602c-0.064,2.684 0.878,5.295 2.64,7.32c1.814,2.057 4.134,3.605 6.73,4.49c2.756,0.987 5.662,1.491 8.59,1.49z"/>
  <path id="svg_7" fill="#ffffff" d="m1013.32,171.645c-1.24,0 -2.43,-0.493 -3.31,-1.371c-0.88,-0.878 -1.37,-2.068 -1.37,-3.309l0,-130.2002c0,-1.2412 0.49,-2.4316 1.37,-3.3092c0.88,-0.8777 2.07,-1.3708 3.31,-1.3708l15.42,0c0.63,-0.0284 1.27,0.0791 1.86,0.3154c0.59,0.2363 1.12,0.5958 1.56,1.0546c0.84,0.8958 1.29,2.0834 1.27,3.31l0,7.81c3.29,-4.3049 7.49,-7.8348 12.29,-10.34c5.07,-2.74 11.38,-4.1066 18.93,-4.1c6.17,-0.1523 12.29,0.9783 18,3.32c4.92,2.0985 9.26,5.342 12.67,9.46c3.49,4.3115 6.14,9.2449 7.8,14.54c1.88,6.0111 2.92,12.2537 3.09,18.55c0.13,2.2134 0.19,4.49 0.19,6.83c0,2.34 -0.06,4.6734 -0.19,7c-0.06,6.1339 -1.03,12.2252 -2.89,18.0702c-1.68,5.275 -4.37,10.177 -7.9,14.44c-3.49,4.132 -7.86,7.432 -12.79,9.66c-5.67,2.465 -11.82,3.663 -18,3.51c-7.03,0 -13.03,-1.267 -18,-3.8c-4.75,-2.377 -8.89,-5.815 -12.1,-10.05l0,45.34c0.02,1.226 -0.43,2.413 -1.27,3.31c-0.44,0.459 -0.97,0.818 -1.56,1.054c-0.59,0.237 -1.23,0.344 -1.86,0.316l-16.52,-0.04zm44.11,-57c5.59,0 9.95,-1.204 13.07,-3.61c3.14,-2.43 5.52,-5.72 6.83,-9.47c1.48,-4.1438 2.34,-8.4847 2.54,-12.8802c0.13,-3.9 0.13,-7.8033 0,-11.71c-0.21,-4.3992 -1.07,-8.7432 -2.55,-12.89c-1.32,-3.7462 -3.69,-7.0316 -6.83,-9.46c-3.12,-2.4133 -7.48,-3.62 -13.07,-3.62c-5.33,0 -9.67,1.2367 -13,3.71c-3.26,2.3965 -5.77,5.6801 -7.22,9.46c-1.48,3.7844 -2.36,7.7753 -2.61,11.83c-0.14,2.34 -0.2,4.81 -0.2,7.41c0,2.6 0.06,5.15 0.2,7.62c0.12,3.8888 1.05,7.7097 2.73,11.2202c1.67,3.547 4.22,6.605 7.41,8.88c3.25,2.333 7.48,3.5 12.69,3.5l0.01,0.01z"/>
  <path id="svg_8" fill="#4831D4" d="m185.238,82.5989l2.153,-4.9545c2.54,-5.7868 3.597,-12.1147 3.074,-18.4118c-0.523,-6.2971 -2.609,-12.3647 -6.069,-17.6543c-3.461,-5.2896 -8.186,-9.6344 -13.75,-12.6416c-5.564,-3.0072 -11.79,-4.582 -18.116,-4.582c-6.326,0 -12.553,1.5748 -18.116,4.582c-5.564,3.0072 -10.29,7.352 -13.75,12.6416c-3.461,5.2896 -5.546,11.3572 -6.069,17.6543c-0.523,6.2971 0.533,12.625 3.074,18.4118l-22.411,9.8496c-4.1698,-9.5013 -5.9032,-19.8907 -5.0436,-30.2291c0.8597,-10.3385 4.2852,-20.2999 9.9666,-28.984c5.682,-8.6841 13.441,-15.8169 22.576,-20.75386c9.134,-4.93691 19.357,-7.52222 29.743,-7.52222c10.386,0 20.609,2.58531 29.743,7.52222c9.135,4.93696 16.894,12.06976 22.576,20.75386c5.681,8.6841 9.107,18.6455 9.967,28.984c0.859,10.3384 -0.874,20.7278 -5.044,30.2291l-2.163,4.9545c-5.082,11.5745 -11.327,22.6035 -18.641,32.9175l-30.148,42.52c-0.922,1.3 -2.149,2.355 -3.574,3.073c-1.424,0.718 -3.003,1.076 -4.598,1.044c-1.596,-0.032 -3.159,-0.454 -4.553,-1.229c-1.394,-0.775 -2.577,-1.879 -3.446,-3.215l-28.581,-43.957c-5.973,-9.183 -11.189,-18.837 -15.5955,-28.8646l-3.1845,-7.2434l22.381,-9.81l3.184,7.2733c3.87,8.81 8.452,17.2907 13.701,25.3567l16.805,25.833l17.679,-24.921c6.364,-8.97 11.802,-18.5616 16.23,-28.6271z" clip-rule="evenodd" fill-rule="evenodd"/>
  <path id="svg_9" fill="#4831D4" d="m279.75,89.7777c1.023,-1.0207 1.834,-2.2326 2.388,-3.5664c0.554,-1.3339 0.839,-2.7635 0.839,-4.2073c0,-1.4438 -0.285,-2.8735 -0.839,-4.2073c-0.554,-1.3339 -1.365,-2.5457 -2.388,-3.5664l-44.753,-44.6739c-1.279,-1.2777 -1.997,-3.01 -1.997,-4.8161c0,-1.8061 0.718,-3.5383 1.997,-4.8161l5.946,-5.9252c0.629,-0.632 1.378,-1.1335 2.203,-1.4758c0.824,-0.3422 1.708,-0.5184 2.601,-0.5184c0.893,0 1.777,0.1762 2.602,0.5184c0.825,0.3423 1.573,0.8438 2.203,1.4758l44.773,44.6938c3.067,3.0619 5.5,6.6969 7.16,10.6975c1.661,4.0006 2.515,8.2884 2.515,12.6187c0,4.3302 -0.854,8.618 -2.515,12.6186c-1.66,4.0006 -4.093,7.6354 -7.16,10.6974l-44.773,44.694c-1.275,1.272 -3.003,1.986 -4.805,1.986c-1.802,0 -3.53,-0.714 -4.804,-1.986l-5.946,-5.935c-1.279,-1.278 -1.997,-3.01 -1.997,-4.816c0,-1.806 0.718,-3.539 1.997,-4.816l44.753,-44.6743z" clip-rule="evenodd" fill-rule="evenodd"/>
  <path id="svg_10" fill="#4831D4" d="m25.2501,74.2319c-1.0229,1.0207 -1.8344,2.2326 -2.3881,3.5665c-0.5536,1.3338 -0.8386,2.7634 -0.8386,4.2073c0,1.4438 0.285,2.8734 0.8386,4.2073c0.5537,1.3338 1.3652,2.5457 2.3881,3.5664l44.7529,44.6736c1.2787,1.278 1.997,3.01 1.997,4.816c0,1.806 -0.7183,3.539 -1.997,4.816l-5.9457,5.926c-0.6297,0.632 -1.3783,1.133 -2.2029,1.475c-0.8245,0.343 -1.7087,0.519 -2.6017,0.519c-0.893,0 -1.7771,-0.176 -2.6017,-0.519c-0.8245,-0.342 -1.5732,-0.843 -2.2029,-1.475l-44.77289,-44.694c-3.06741,-3.062 -5.50062,-6.6971 -7.1607,-10.6977c-1.66007,-4.0006 -2.51452,-8.2884 -2.51452,-12.6186c0,-4.3303 0.85445,-8.6181 2.51453,-12.6187c1.66008,-4.0006 4.09328,-7.6356 7.1607,-10.6975l44.77288,-44.6938c1.2745,-1.2716 3.0027,-1.9859 4.8046,-1.9859c1.802,0 3.5302,0.7143 4.8046,1.9859l5.9457,5.9352c1.2788,1.2778 1.997,3.01 1.997,4.8161c0,1.8061 -0.7182,3.5383 -1.997,4.8161l-44.7529,44.6738z" clip-rule="evenodd" fill-rule="evenodd"/>
 </g>
</svg>