<svg width="1107" height="173" viewBox="0 0 1107 173" fill="none" xmlns="http://www.w3.org/2000/svg">
<path d="M386.77 135.52C380.644 135.644 374.56 134.482 368.91 132.11C363.939 129.958 359.557 126.645 356.13 122.45C352.628 118.068 349.979 113.068 348.32 107.71C346.435 101.668 345.385 95.3962 345.2 89.0696C345.073 86.7296 345.007 84.6163 345 82.7296C345 80.8496 345.07 78.7296 345.2 76.3896C345.397 70.234 346.406 64.1313 348.2 58.2396C349.838 52.8756 352.489 47.8754 356.01 43.5096C359.476 39.264 363.887 35.8875 368.89 33.6496C374.522 31.2096 380.614 30.0124 386.75 30.1396C393.77 30.1396 399.72 31.343 404.6 33.7496C409.257 35.9785 413.415 39.1286 416.82 43.0096V4.68964C416.791 3.46208 417.247 2.27256 418.09 1.37964C418.527 0.920051 419.057 0.559836 419.646 0.323448C420.234 0.0870614 420.867 -0.0199627 421.5 0.00964217H439.09C439.708 -0.000393413 440.321 0.115963 440.892 0.35156C441.463 0.587157 441.979 0.937018 442.41 1.37964C442.852 1.80853 443.202 2.3235 443.438 2.89278C443.673 3.46207 443.79 4.0736 443.78 4.68964V128.89C443.78 129.505 443.659 130.114 443.423 130.683C443.187 131.251 442.841 131.768 442.406 132.202C441.97 132.637 441.453 132.982 440.884 133.216C440.315 133.451 439.705 133.571 439.09 133.57H421.68C421.045 133.599 420.411 133.492 419.821 133.256C419.231 133.02 418.699 132.659 418.26 132.2C417.417 131.307 416.961 130.117 416.99 128.89V121.67C413.605 125.833 410.384 129.24 405.6 131.67C400.593 134.236 394.317 135.52 386.77 135.52ZM393.99 114.64C399.45 114.64 403.807 113.403 407.06 110.93C410.286 108.495 412.783 105.223 414.28 101.47C415.828 97.717 416.688 93.7167 416.82 89.6596C416.95 87.3196 417.02 84.8096 417.02 82.1496C417.02 79.4896 416.95 76.9696 416.82 74.6296C416.693 70.7415 415.763 66.9216 414.09 63.4096C412.422 59.8603 409.866 56.8016 406.67 54.5296C403.423 52.183 399.197 51.0096 393.99 51.0096C388.517 51.0096 384.183 52.213 380.99 54.6196C377.802 57.0251 375.392 60.3149 374.06 64.0796C372.582 68.24 371.736 72.5984 371.55 77.0096C371.41 80.923 371.41 84.8263 371.55 88.7196C371.745 93.1153 372.597 97.457 374.08 101.6C375.409 105.369 377.819 108.663 381.01 111.07C384.203 113.456 388.53 114.646 393.99 114.64Z" fill="white"/>
<path d="M500.26 135.52C485.82 135.52 474.37 131.356 465.91 123.03C457.45 114.703 452.897 102.863 452.25 87.5097C452.12 86.2097 452.05 84.5097 452.05 82.5097C452.033 80.9139 452.099 79.3184 452.25 77.7297C452.77 67.8363 455.013 59.3463 458.98 52.2597C462.79 45.3272 468.515 39.6375 475.47 35.8697C482.503 32.0297 490.767 30.1096 500.26 30.1096C510.8 30.1096 519.647 32.2897 526.8 36.6497C533.89 40.9438 539.532 47.2615 543 54.7896C546.64 62.543 548.46 71.4897 548.46 81.6297V85.7297C548.471 86.3459 548.355 86.9577 548.119 87.5272C547.884 88.0967 547.533 88.6115 547.09 89.0396C546.63 89.4968 546.082 89.8544 545.478 90.0901C544.874 90.3258 544.228 90.4346 543.58 90.4097H478.79V92.0097C478.873 96.3338 479.765 100.604 481.42 104.6C482.936 108.293 485.437 111.5 488.65 113.87C491.969 116.253 495.976 117.485 500.06 117.38C505.662 117.596 511.131 115.636 515.32 111.91C516.54 110.849 517.652 109.67 518.64 108.39C519.367 107.252 520.333 106.287 521.47 105.56C522.501 105.187 523.595 105.024 524.69 105.08H541.47C542.655 105.036 543.81 105.456 544.69 106.25C545.1 106.609 545.414 107.066 545.602 107.577C545.791 108.089 545.849 108.64 545.77 109.18C545.64 111.26 544.56 113.79 542.55 116.79C540.152 120.171 537.216 123.137 533.86 125.57C529.564 128.7 524.784 131.105 519.71 132.69C513.422 134.676 506.854 135.631 500.26 135.52ZM478.79 74.0097H521.92V73.4197C522.013 68.8348 521.148 64.2809 519.38 60.0497C517.847 56.3872 515.27 53.2571 511.97 51.0497C508.428 48.9418 504.382 47.8292 500.26 47.8292C496.138 47.8292 492.092 48.9418 488.55 51.0497C485.255 53.239 482.702 56.3775 481.23 60.0497C479.525 64.2967 478.695 68.8442 478.79 73.4197V74.0097Z" fill="white"/>
<path d="M589.49 133.57C588.667 133.64 587.837 133.547 587.05 133.296C586.262 133.046 585.532 132.643 584.9 132.11C583.907 131.109 583.083 129.954 582.46 128.69L545.97 38.1396C545.726 37.5843 545.593 36.9862 545.58 36.3796C545.588 35.2443 546.042 34.1577 546.845 33.3548C547.648 32.552 548.735 32.0975 549.87 32.0896H565.68C566.322 32.0398 566.967 32.1273 567.572 32.3463C568.177 32.5653 568.729 32.9107 569.19 33.3596C569.874 34.0553 570.406 34.8865 570.75 35.7996L596.75 104.3L622.75 35.7996C623.094 34.8865 623.626 34.0553 624.31 33.3596C624.773 32.91 625.326 32.5641 625.933 32.3451C626.54 32.1261 627.187 32.039 627.83 32.0896H643.83C644.363 32.0971 644.89 32.2136 645.376 32.432C645.863 32.6504 646.3 32.9661 646.66 33.3596C647.063 33.7482 647.383 34.2142 647.602 34.7298C647.82 35.2454 647.932 35.7998 647.93 36.3596C647.921 36.9514 647.854 37.5409 647.73 38.1196L611.04 128.67C610.521 129.968 609.722 131.136 608.7 132.09C607.383 133.155 605.709 133.678 604.02 133.55L589.49 133.57Z" fill="white"/>
<path d="M691.62 135.52C684.851 135.666 678.102 134.745 671.62 132.79C666.744 131.318 662.155 129.025 658.05 126.01C654.986 123.755 652.343 120.979 650.24 117.81C648.55 115.08 647.64 112.81 647.51 110.98C647.417 110.35 647.484 109.708 647.706 109.111C647.929 108.515 648.298 107.985 648.78 107.57C649.658 106.761 650.806 106.308 652 106.3H667.42C667.88 106.295 668.339 106.359 668.78 106.49C669.364 106.755 669.888 107.136 670.32 107.61C672.01 109.05 673.8 110.54 675.69 112.1C677.728 113.752 679.995 115.1 682.42 116.1C686.077 117.392 689.956 117.937 693.828 117.704C697.7 117.47 701.485 116.462 704.96 114.74C706.249 114.006 707.364 113.002 708.227 111.797C709.09 110.591 709.681 109.212 709.96 107.756C710.238 106.299 710.197 104.8 709.84 103.36C709.483 101.921 708.818 100.577 707.89 99.4196C706.39 97.733 703.627 96.203 699.6 94.8296C693.96 93.0449 688.225 91.5792 682.42 90.4396C676.131 89.0978 670.046 86.936 664.32 84.0096C659.923 81.7921 656.213 78.4178 653.59 74.2496C651.105 69.9161 649.886 64.9727 650.07 59.9808C650.253 54.9889 651.833 50.1486 654.63 46.0096C657.69 41.423 662.253 37.6296 668.32 34.6296C674.387 31.6296 681.9 30.133 690.86 30.1396C697.075 30.0214 703.269 30.9096 709.2 32.7696C713.854 34.2448 718.242 36.4525 722.2 39.3096C725.239 41.5038 727.906 44.171 730.1 47.2096C731.92 49.8763 732.897 52.1863 733.03 54.1396C733.124 54.7617 733.067 55.3973 732.863 55.9925C732.659 56.5878 732.315 57.1253 731.86 57.5596C731.025 58.3727 729.906 58.8283 728.74 58.8296H714.25C713.643 58.8407 713.042 58.7034 712.5 58.4296C711.947 58.1504 711.425 57.8153 710.94 57.4296C709.5 56.0963 707.937 54.6963 706.25 53.2296C704.415 51.6488 702.343 50.3665 700.11 49.4296C697.089 48.2826 693.869 47.7522 690.64 47.8696C685.687 47.8696 681.913 48.943 679.32 51.0896C678.087 52.0454 677.093 53.2746 676.416 54.6803C675.739 56.0859 675.398 57.6297 675.42 59.1896C675.37 61.2898 676.04 63.3438 677.32 65.0096C678.56 66.643 681.067 68.173 684.84 69.5996C690.429 71.4935 696.152 72.9676 701.96 74.0096C710.673 75.5696 717.6 77.8796 722.74 80.9396C727.88 83.9996 731.523 87.523 733.67 91.5096C735.839 95.5606 736.947 100.095 736.89 104.69C736.942 110.38 735.126 115.931 731.72 120.49C728.273 125.156 723.2 128.823 716.5 131.49C709.8 134.156 701.507 135.5 691.62 135.52Z" fill="white"/>
<path d="M750.71 133.57C750.095 133.572 749.485 133.453 748.916 133.219C748.347 132.985 747.83 132.64 747.395 132.205C746.96 131.77 746.615 131.253 746.381 130.684C746.147 130.115 746.027 129.505 746.03 128.89V36.7696C746.027 36.1543 746.147 35.5445 746.381 34.9756C746.615 34.4066 746.96 33.8896 747.395 33.4545C747.83 33.0194 748.347 32.6747 748.916 32.4405C749.485 32.2062 750.095 32.087 750.71 32.0896H765.93C766.545 32.0883 767.155 32.2084 767.724 32.443C768.293 32.6776 768.81 33.0221 769.246 33.4568C769.681 33.8915 770.027 34.4079 770.263 34.9764C770.499 35.5448 770.62 36.1542 770.62 36.7696V43.4096C773.582 39.5687 777.333 36.4077 781.62 34.1396C786.709 31.4843 792.37 30.1112 798.11 30.1396C812.943 29.8796 823.277 35.6696 829.11 47.5096C832.208 42.2014 836.705 37.8463 842.11 34.9196C847.861 31.7082 854.353 30.0602 860.94 30.1396C867.39 30.0587 873.749 31.6725 879.38 34.8196C885.085 38.1149 889.656 43.0626 892.49 49.0096C895.71 55.2963 897.32 63.253 897.32 72.8796V128.88C897.323 129.495 897.203 130.105 896.969 130.674C896.735 131.243 896.39 131.76 895.955 132.195C895.52 132.63 895.003 132.975 894.434 133.209C893.865 133.443 893.255 133.562 892.64 133.56H876.64C875.399 133.56 874.208 133.067 873.331 132.189C872.453 131.311 871.96 130.121 871.96 128.88V74.4396C871.96 68.5796 871.113 63.913 869.42 60.4396C868.023 57.3091 865.619 54.7358 862.59 53.1296C859.596 51.6735 856.299 50.947 852.97 51.0096C849.981 51.0413 847.041 51.778 844.39 53.1596C841.341 54.7924 838.889 57.3523 837.39 60.4696C835.57 63.923 834.66 68.5896 834.66 74.4696V128.92C834.66 129.535 834.539 130.144 834.303 130.713C834.067 131.281 833.721 131.798 833.286 132.232C832.85 132.667 832.333 133.012 831.764 133.246C831.195 133.481 830.585 133.601 829.97 133.6H813.97C813.355 133.602 812.745 133.483 812.176 133.249C811.607 133.015 811.09 132.67 810.655 132.235C810.22 131.8 809.875 131.283 809.641 130.714C809.407 130.145 809.287 129.535 809.29 128.92V74.4396C809.29 68.5796 808.377 63.913 806.55 60.4396C805.049 57.3235 802.598 54.764 799.55 53.1296C796.684 51.703 793.521 50.9764 790.32 51.0096C787.251 51.0297 784.234 51.7986 781.53 53.2496C778.509 54.9248 776.069 57.4773 774.53 60.5696C772.71 63.9596 771.8 68.5696 771.8 74.4296V128.88C771.8 129.495 771.679 130.104 771.443 130.673C771.207 131.241 770.861 131.758 770.426 132.192C769.99 132.627 769.473 132.972 768.904 133.206C768.335 133.441 767.725 133.561 767.11 133.56L750.71 133.57Z" fill="white"/>
<path d="M942.51 135.52C936.17 135.616 929.894 134.247 924.17 131.52C918.996 129.105 914.522 125.412 911.17 120.79C907.166 115.041 905.587 107.948 906.774 101.044C907.96 94.1404 911.817 87.9813 917.51 83.8997C924.93 78.513 934.623 74.903 946.59 73.0696L973.32 69.1697V65.0696C973.32 59.6096 971.953 55.383 969.22 52.3897C966.487 49.3963 961.82 47.8997 955.22 47.8997C950.553 47.8997 946.747 48.843 943.8 50.7297C940.933 52.5406 938.66 55.1513 937.26 58.2397C936.813 59.0312 936.159 59.6859 935.368 60.1334C934.577 60.5809 933.679 60.8044 932.77 60.7797H917.32C916.731 60.8257 916.139 60.7452 915.583 60.5434C915.028 60.3416 914.522 60.0232 914.1 59.6096C913.349 58.7451 912.962 57.6234 913.02 56.4797C913.355 53.7855 914.254 51.1923 915.66 48.8697C917.572 45.5427 920.084 42.5995 923.07 40.1897C926.955 37.0763 931.355 34.6666 936.07 33.0697C941.403 31.1097 947.843 30.133 955.39 30.1397C963.59 30.1397 970.52 31.1397 976.18 33.1397C981.243 34.8044 985.874 37.5707 989.74 41.2397C993.096 44.5851 995.632 48.6613 997.15 53.1497C998.735 57.7978 999.529 62.6788 999.5 67.5897V128.87C999.5 129.485 999.379 130.094 999.143 130.663C998.907 131.231 998.561 131.748 998.126 132.182C997.69 132.617 997.173 132.962 996.604 133.196C996.035 133.431 995.426 133.551 994.81 133.55H979C978.367 133.579 977.734 133.472 977.146 133.236C976.558 132.999 976.027 132.639 975.59 132.18C974.747 131.287 974.291 130.097 974.32 128.87V121.25C972.384 123.843 970.083 126.143 967.49 128.08C964.341 130.45 960.81 132.266 957.05 133.45C952.346 134.914 947.436 135.613 942.51 135.52ZM949.15 117.01C953.465 117.049 957.722 116.018 961.54 114.01C965.326 111.988 968.393 108.844 970.32 105.01C972.467 100.91 973.54 95.7363 973.54 89.4897V85.3697L954.02 88.4897C946.347 89.663 940.623 91.5497 936.85 94.1497C933.077 96.7496 931.19 99.9363 931.19 103.71C931.126 106.394 932.068 109.004 933.83 111.03C935.644 113.087 937.964 114.635 940.56 115.52C943.316 116.507 946.222 117.011 949.15 117.01Z" fill="white"/>
<path d="M1013.32 171.65C1012.08 171.65 1010.89 171.157 1010.01 170.279C1009.13 169.401 1008.64 168.211 1008.64 166.97V36.7696C1008.64 35.5284 1009.13 34.3381 1010.01 33.4604C1010.89 32.5827 1012.08 32.0896 1013.32 32.0896H1028.74C1029.37 32.0612 1030.01 32.1687 1030.6 32.405C1031.19 32.6413 1031.72 33.0008 1032.16 33.4596C1033 34.3555 1033.45 35.543 1033.43 36.7696V44.5796C1036.72 40.2747 1040.92 36.7449 1045.72 34.2396C1050.79 31.4996 1057.1 30.133 1064.65 30.1396C1070.82 29.9874 1076.94 31.1179 1082.65 33.4596C1087.57 35.5582 1091.91 38.8016 1095.32 42.9196C1098.81 47.2311 1101.46 52.1645 1103.12 57.4596C1105 63.4707 1106.04 69.7133 1106.21 76.0096C1106.34 78.223 1106.4 80.4996 1106.4 82.8396C1106.4 85.1796 1106.34 87.513 1106.21 89.8396C1106.15 95.9735 1105.18 102.064 1103.32 107.91C1101.64 113.185 1098.95 118.087 1095.42 122.35C1091.93 126.482 1087.56 129.782 1082.63 132.01C1076.96 134.475 1070.81 135.673 1064.63 135.52C1057.6 135.52 1051.6 134.253 1046.63 131.72C1041.88 129.343 1037.74 125.904 1034.53 121.67V167.01C1034.55 168.236 1034.1 169.423 1033.26 170.32C1032.82 170.778 1032.29 171.138 1031.7 171.374C1031.11 171.611 1030.47 171.718 1029.84 171.69L1013.32 171.65ZM1057.43 114.65C1063.02 114.65 1067.38 113.446 1070.5 111.04C1073.64 108.609 1076.02 105.32 1077.33 101.57C1078.81 97.426 1079.67 93.0852 1079.87 88.6896C1080 84.7896 1080 80.8863 1079.87 76.9796C1079.66 72.5805 1078.8 68.2365 1077.32 64.0896C1076 60.3434 1073.63 57.058 1070.49 54.6296C1067.37 52.2163 1063.01 51.0096 1057.42 51.0096C1052.09 51.0096 1047.75 52.2463 1044.42 54.7196C1041.16 57.1161 1038.65 60.3997 1037.2 64.1796C1035.72 67.964 1034.84 71.9549 1034.59 76.0096C1034.45 78.3496 1034.39 80.8196 1034.39 83.4196C1034.39 86.0196 1034.45 88.5696 1034.59 91.0396C1034.71 94.9285 1035.64 98.7494 1037.32 102.26C1038.99 105.807 1041.54 108.865 1044.73 111.14C1047.98 113.473 1052.21 114.64 1057.42 114.64L1057.43 114.65Z" fill="white"/>
<path fill-rule="evenodd" clip-rule="evenodd" d="M185.238 82.6037L187.391 77.6492C189.931 71.8624 190.988 65.5345 190.465 59.2374C189.942 52.9403 187.856 46.8727 184.396 41.5831C180.935 36.2935 176.21 31.9487 170.646 28.9415C165.082 25.9343 158.856 24.3595 152.53 24.3595C146.204 24.3595 139.977 25.9343 134.414 28.9415C128.85 31.9487 124.124 36.2935 120.664 41.5831C117.203 46.8727 115.118 52.9403 114.595 59.2374C114.072 65.5345 115.128 71.8624 117.669 77.6492L95.258 87.4988C91.0882 77.9975 89.3548 67.6081 90.2144 57.2697C91.0741 46.9313 94.4996 36.9698 100.181 28.2857C105.863 19.6017 113.622 12.4688 122.757 7.53187C131.891 2.59495 142.114 0.00964355 152.5 0.00964355C162.886 0.00964355 173.109 2.59495 182.243 7.53187C191.378 12.4688 199.137 19.6017 204.819 28.2857C210.5 36.9698 213.926 46.9313 214.786 57.2697C215.645 67.6081 213.912 77.9975 209.742 87.4988L207.579 92.4533C202.497 104.028 196.252 115.057 188.938 125.371L158.79 167.891C157.868 169.191 156.641 170.246 155.216 170.964C153.792 171.682 152.213 172.04 150.618 172.008C149.022 171.975 147.459 171.553 146.065 170.779C144.671 170.004 143.488 168.9 142.619 167.564L114.038 123.607C108.065 114.424 102.849 104.77 98.4425 94.7423L95.258 87.4988L117.639 77.6889L120.823 84.9621C124.693 93.7721 129.275 102.253 134.524 110.319L151.329 136.152L169.008 111.231C175.372 102.261 180.81 92.6693 185.238 82.6037Z" fill="white"/>
<path fill-rule="evenodd" clip-rule="evenodd" d="M279.75 89.7825C280.773 88.7618 281.584 87.5499 282.138 86.2161C282.692 84.8823 282.977 83.4526 282.977 82.0088C282.977 80.565 282.692 79.1353 282.138 77.8015C281.584 76.4677 280.773 75.2558 279.75 74.2351L234.997 29.5612C233.718 28.2835 233 26.5513 233 24.7451C233 22.939 233.718 21.2068 234.997 19.929L240.943 14.0038C241.572 13.3718 242.321 12.8703 243.146 12.5281C243.97 12.1858 244.854 12.0096 245.747 12.0096C246.64 12.0096 247.524 12.1858 248.349 12.5281C249.174 12.8703 249.922 13.3718 250.552 14.0038L295.325 58.6977C298.392 61.7595 300.825 65.3946 302.485 69.3952C304.146 73.3957 305 77.6836 305 82.0138C305 86.344 304.146 90.6319 302.485 94.6325C300.825 98.6331 298.392 102.268 295.325 105.33L250.552 150.024C249.277 151.295 247.549 152.01 245.747 152.01C243.945 152.01 242.217 151.295 240.943 150.024L234.997 144.089C233.718 142.811 233 141.079 233 139.272C233 137.466 233.718 135.734 234.997 134.456L279.75 89.7825Z" fill="white"/>
<path fill-rule="evenodd" clip-rule="evenodd" d="M25.2501 74.2368C24.2272 75.2575 23.4157 76.4693 22.862 77.8032C22.3084 79.137 22.0234 80.5667 22.0234 82.0105C22.0234 83.4543 22.3084 84.8839 22.862 86.2178C23.4157 87.5516 24.2272 88.7635 25.2501 89.7842L70.003 134.458C71.2817 135.736 72 137.468 72 139.274C72 141.08 71.2817 142.812 70.003 144.09L64.0573 150.015C63.4276 150.647 62.679 151.149 61.8544 151.491C61.0299 151.833 60.1457 152.01 59.2527 152.01C58.3597 152.01 57.4756 151.833 56.651 151.491C55.8265 151.149 55.0778 150.647 54.4481 150.015L9.67521 105.322C6.6078 102.26 4.17459 98.6247 2.51451 94.6241C0.854435 90.6235 -9.17628e-06 86.3357 -8.79772e-06 82.0055C-8.41916e-06 77.6753 0.854437 73.3874 2.51452 69.3868C4.1746 65.3862 6.6078 61.7512 9.67522 58.6894L54.4481 13.9955C55.7226 12.7239 57.4508 12.0096 59.2527 12.0096C61.0547 12.0096 62.7829 12.7239 64.0573 13.9955L70.003 19.9307C71.2818 21.2085 72 22.9407 72 24.7468C72 26.5529 71.2818 28.2852 70.003 29.5629L25.2501 74.2368Z" fill="white"/>
</svg>
